<?xml version="1.0" encoding="UTF-8" standalone="no"?>
<svg xmlns="http://www.w3.org/2000/svg" xmlns:xlink="http://www.w3.org/1999/xlink" width="299.840mm" height="310.200mm" viewBox="-330.420044 94.899994 299.840027 310.200012">
    <path transform="matrix(-1,0,0,1,-178.580032,93.899994)" style="stroke:#ff0000;stroke-width:0.05mm;fill:none" d="M15.453995,310.248993L16.543991,309.732513L16.561996,309.723999L17.615005,309.092987L18.599991,308.363007L19.509003,307.539001L20.332993,306.630005L20.78508,306.019989L20.903656,305.859985L21.063004,305.644989L21.566528,304.804718L21.70433,304.779633L23.169998,304.51297L35.981003,302.182007L50.136002,298.139984L63.826004,292.730011L76.919998,286.003998L89.291992,278.027008L100.821991,268.876007L111.399994,258.639008L120.874641,247.471008L120.878059,247.46698L120.886429,247.466827L121.858002,247.450989L123.075996,247.311005L124.275002,247.052002L125.443001,246.677002L126.569,246.188995L127.640999,245.592987L128.649994,244.894989L129.584991,244.101013L130.437988,243.220001L131.200989,242.259003L131.231995,242.210938L131.486115,241.816956L131.865997,241.227997L132.330017,240.324005L132.425995,240.136993L132.526154,239.883636L132.795731,239.416687L133.533997,238.137939L136.895203,232.31601L137.357864,231.514618L137.723663,230.881012L138.073456,230.275146L138.409088,229.693787L138.73114,229.135956L139.036621,228.606812L139.326111,228.105408L139.589996,227.648346L139.781815,227.316101L139.950989,227.102997L140.615997,226.071991L141.175995,224.980988L141.276001,224.728027L141.429001,224.463013L141.389709,224.440308L141.587463,223.940002L141.626999,223.839996L141.963989,222.661011L142.182999,221.45401L142.283997,220.230988L142.263,219.005005L142.123001,217.786011L141.863998,216.587006L141.594635,215.747986L141.488998,215.419006L141.001007,214.294006L140.737518,213.819672L140.429779,213.265625L140.49234,213.121368L140.641113,212.778168L142.283997,208.988739L142.306,208.937988L146.80899,194.923004L147.618958,191.171997L149.916,180.533997L151.598999,165.910004L151.839996,151.192001L150.636993,136.520996L148.001999,122.039001L143.959991,107.884003L142.283997,103.642883L141.970032,102.848404L141.626541,101.979187L141.336365,101.244881L141.084991,100.608826L140.877197,100.082977L140.707794,99.654297L140.574524,99.317062L140.479126,99.075638L140.427872,98.945961L140.425995,98.9412L140.718231,98.41507L141.001007,97.905998L141.488998,96.780998L141.863998,95.612999L142.123001,94.414001L142.263,93.195L142.2686,92.867996L142.283997,91.968994L142.182999,90.746002L141.963989,89.539001L141.626999,88.360001L141.175995,87.218994L140.935867,86.751167L140.615997,86.127998L139.950989,85.097L139.782547,84.884827L139.512909,84.417801L136.895386,79.884003L133.533997,74.061722L133.268616,73.602043L132.982056,73.105721L132.718597,72.649376L132.525726,72.315277L132.425995,72.062996L131.865997,70.972L131.231995,69.989059L131.200989,69.940994L131.032288,69.7285L130.878998,69.462997L130.839569,69.485764L130.437988,68.979996L129.584991,68.098999L128.649994,67.305L127.640999,66.606995L126.569,66.011002L125.443001,65.522995L124.275002,65.147995L123.075996,64.889L121.858002,64.749001L120.673668,64.729691L120.673119,64.728996L117.296997,60.475185L116.999222,60.099998L114.695999,57.197998L108.546997,50.84417L104.459,46.619999L93.233994,37.097L81.130005,28.719999L68.263,21.569L54.757996,15.713997L40.742996,11.210999L26.354004,8.104L23.169998,7.737568L22.86409,7.702362L22.196304,7.625511L21.824677,7.582741L21.66806,7.56472L21.074387,6.574009L21.063004,6.555L20.78508,6.18L20.332993,5.57L19.509003,4.660999L18.599991,3.836998L17.615005,3.106998L16.561996,2.475998L16.543991,2.467487L15.453995,1.952L14.298996,1.537998L13.108994,1.239998L12.470001,1.145252L12.470001,1.099998L12.16478,1.099998L11.895004,1.059998L10.669998,1L9.444992,1.059998L9.175217,1.099998L8.790054,1.099998L8.262955,1.099998L7.687561,1.099998L7.074234,1.099998L6.433075,1.099998L5.759338,1.099998L5.669998,1.099998L0.160004,1.099998L-4.78833,1.099998L-5.33522,1.099998L-5.604996,1.059998L-6.830002,1L-8.055008,1.059998L-9.268997,1.239998L-10.459,1.537998L-11.613998,1.952L-12.722,2.475998L-13.775009,3.106998L-14.759995,3.836998L-15.668991,4.660999L-16.224014,5.273251L-16.492996,5.57L-17.223007,6.555L-17.726547,7.395287L-17.755722,7.400597L-17.919296,7.430359L-18.193314,7.480213L-19.330002,7.687038L-32.141006,10.017998L-46.296005,14.059998L-59.986008,19.469997L-72.698441,26L-73.080002,26.195999L-85.452011,34.172997L-96.98201,43.323997L-104.707016,50.799969L-107.560013,53.560997L-113.107529,60.099998L-117.034653,64.728996L-117.038071,64.733025L-117.046432,64.733162L-118.01799,64.749001L-119.236008,64.889L-120.435013,65.147995L-121.603012,65.522995L-122.720016,66.007095L-122.728989,66.011002L-123.80101,66.606995L-124.810013,67.305L-125.74501,68.098999L-126.598007,68.979996L-126.999557,69.485764L-127.039017,69.462997L-127.192276,69.7285L-127.361008,69.940994L-128.026016,70.972L-128.586014,72.062996L-128.685715,72.315277L-128.878616,72.649376L-129.142075,73.105721L-129.428604,73.602043L-129.694016,74.061722L-133.055405,79.884003L-135.672928,84.417801L-135.942551,84.884827L-136.111008,85.097L-136.776016,86.127998L-137.095871,86.751167L-137.336014,87.218994L-137.787003,88.360001L-138.124008,89.539001L-138.156113,89.715996L-138.343002,90.746002L-138.444016,91.968994L-138.428604,92.867996L-138.422989,93.195L-138.283005,94.414001L-138.024002,95.612999L-137.649002,96.780998L-137.160995,97.905998L-136.897263,98.380829L-136.589615,98.934669L-136.591965,98.940063L-136.646805,99.066574L-136.749222,99.302849L-136.89296,99.634354L-137.076462,100.057663L-137.302567,100.579224L-137.577286,101.212967L-138.444016,103.21225L-138.465988,103.263L-138.982681,104.871002L-142.969009,117.276993L-146.077011,131.666L-147.758987,146.290009L-148.000015,161.007996L-146.797012,175.679001L-144.162003,190.161011L-143.873306,191.171997L-140.12001,204.31601L-138.444016,208.557129L-136.789841,212.742981L-136.646042,213.106842L-136.585983,213.258789L-136.87825,213.784943L-137.160995,214.294006L-137.649002,215.419006L-137.754623,215.747986L-138.024002,216.587006L-138.283005,217.786011L-138.422989,219.005005L-138.444016,220.230988L-138.343002,221.45401L-138.124008,222.661011L-137.787003,223.839996L-137.747482,223.940002L-137.551102,224.436798L-137.549728,224.440308L-137.589005,224.463013L-137.435989,224.728027L-137.336014,224.980988L-136.776016,226.071991L-136.111008,227.102997L-135.941818,227.316101L-135.750015,227.648346L-135.48613,228.105408L-135.19664,228.606812L-134.891159,229.135956L-134.569107,229.693787L-133.055191,232.31601L-129.694016,238.137939L-128.955734,239.416687L-128.686142,239.883636L-128.586014,240.136993L-128.490005,240.324005L-128.026016,241.227997L-127.648148,241.813812L-127.646103,241.816956L-127.361008,242.259003L-126.598007,243.220001L-125.74501,244.101013L-124.810013,244.894989L-123.80101,245.592987L-122.728989,246.188995L-121.603012,246.677002L-120.435013,247.052002L-119.236008,247.311005L-118.01799,247.450989L-116.833664,247.470306L-116.833115,247.471008L-113.457016,251.724823L-110.856003,255.001984L-104.707016,261.355835L-100.619003,265.579987L-89.393997,275.102997L-77.289993,283.480011L-64.422989,290.631012L-50.918015,296.485992L-36.903,300.989014L-22.513992,304.096985L-19.330002,304.463196L-19.046127,304.49585L-18.584396,304.548981L-18.225754,304.59021L-17.973038,304.619293L-17.833481,304.635345L-17.827621,304.636017L-17.223007,305.644989L-16.945084,306.019989L-16.492996,306.630005L-16.224014,306.926758L-15.668991,307.539001L-14.759995,308.363007L-13.775009,309.092987L-12.722,309.723999L-11.613998,310.248993L-10.459,310.661987L-9.268997,310.959991L-8.055008,311.139984L-7.529999,311.16571L-6.830002,311.200012L-5.604996,311.139984L-5.33522,311.100006L-4.78833,311.100006L-1.830002,311.100006L4.319794,311.100006L5.059006,311.100006L5.669998,311.100006L5.759338,311.100006L6.433075,311.100006L7.074234,311.100006L7.682007,311.100006L8.265915,311.100006L8.790054,311.100006L9.175217,311.100006L9.444992,311.139984L10.669998,311.200012L11.895004,311.139984L12.16478,311.100006L12.470001,311.100006L12.470001,311.054749L13.108994,310.959991L14.298996,310.661987L15.453995,310.248993z"/>
    <path transform="matrix(-1,0,0,1,-178.580032,93.899994)" style="stroke:#ff0000;stroke-width:0.05mm;fill:none" d="M32.951996,141.088989L32.927994,141.092957L32.757996,141.121002L32.561996,141.134003L32.365997,141.126999L32.171005,141.100998L31.979996,141.056L31.793991,140.992996L31.615005,140.911987L31.444992,140.812988L31.285004,140.699005L31.138,140.569L31.003998,140.424988L30.884003,140.268997L30.780991,140.10199L30.716736,139.972L30.694,139.925995L30.625,139.742004L30.574005,139.552002L30.541992,139.358002L30.529999,139.161987L30.535995,138.966003L30.561996,138.770996L30.606995,138.580002L30.671005,138.393997L30.751999,138.214996L30.849991,138.044998L30.936966,137.923996L30.964996,137.88501L31.095001,137.738007L31.237991,137.604004L31.393997,137.484009L31.561005,137.380997L31.737,137.294006L31.921005,137.225006L32.110992,137.173996L32.304993,137.141998L32.500992,137.130005L32.696991,137.136002L32.891998,137.161987L32.927994,137.170441L33.084,137.207001L33.270004,137.270996L33.447998,137.35199L33.617996,137.449997L33.778,137.565002L33.925995,137.695007L34.059998,137.837997L34.125595,137.923996L34.179001,137.993988L34.283005,138.160995L34.369003,138.337006L34.438004,138.520996L34.488998,138.710999L34.520996,138.904999L34.533997,139.100998L34.526993,139.296997L34.500992,139.492004L34.455994,139.68399L34.393005,139.868988L34.34639,139.972L34.311996,140.048004L34.212997,140.217987L34.098999,140.377991L33.968994,140.526001L33.824997,140.660004L33.668991,140.778992L33.501999,140.882996L33.326004,140.968994L33.141998,141.037994L32.951996,141.088989z"/>
    <path transform="matrix(-1,0,0,1,-178.580032,93.899994)" style="stroke:#ff0000;stroke-width:0.05mm;fill:none" d="M33.059998,176.018997L32.927994,176.147247L32.918991,176.156006L32.764999,176.278L32.598999,176.384003L32.423996,176.472992L32.240997,176.544998L32.052002,176.598999L31.858994,176.632996L31.662994,176.649002L31.466003,176.644989L31.270996,176.622009L31.078995,176.580994L30.891998,176.519989L30.880005,176.51474L30.712006,176.44101L30.539993,176.346008L30.378998,176.233002L30.229004,176.105988L30.093002,175.963989L29.970993,175.809998L29.865005,175.644989L29.776001,175.470001L29.703995,175.286987L29.649994,175.097992L29.615997,174.903992L29.606522,174.787994L29.599991,174.708008L29.604004,174.511993L29.625992,174.317001L29.667999,174.125L29.729004,173.937988L29.806992,173.756989L29.903,173.585999L30.014999,173.424988L30.143005,173.274994L30.283997,173.139008L30.438995,173.016998L30.604004,172.910995L30.778992,172.820999L30.880005,172.78125L30.962006,172.748993L31.151001,172.695999L31.345001,172.660995L31.541,172.644989L31.737,172.649002L31.931992,172.671997L32.123993,172.713989L32.311005,172.774002L32.490997,172.852997L32.662994,172.949005L32.824005,173.061005L32.927994,173.149048L32.973999,173.187988L33.110001,173.330002L33.231995,173.484009L33.337997,173.649994L33.427994,173.824997L33.5,174.007996L33.552994,174.196991L33.587997,174.389999L33.602997,174.585999L33.599991,174.78299L33.599411,174.787994L33.576996,174.977997L33.535004,175.169998L33.474991,175.356995L33.395996,175.536987L33.300003,175.708008L33.188004,175.869995L33.059998,176.018997z"/>
    <path transform="matrix(-1,0,0,1,-178.580032,93.899994)" style="stroke:#ff0000;stroke-width:0.05mm;fill:none" d="M5.669998,159.402695L5.457001,159.636993L5.093994,159.966995L4.699005,160.259003L4.278,160.511993L4.255997,160.5224L3.834,160.722L3.371994,160.886993L2.895996,161.005997L2.410004,161.078003L1.919998,161.102997L1.429993,161.078003L0.944,161.005997L0.468002,160.886993L0.160004,160.777008L0.005997,160.722L-0.438004,160.511993L-0.859009,160.259003L-1.253998,159.966995L-1.617004,159.636993L-1.830002,159.402695L-1.947006,159.274002L-2.238998,158.878998L-2.492004,158.458008L-2.517548,158.403992L-2.701996,158.014008L-2.867004,157.552002L-2.986008,157.075989L-3.057999,156.589996L-3.083008,156.100006L-3.057999,155.610001L-2.986008,155.123993L-2.867004,154.647995L-2.745575,154.307999L-2.701996,154.186005L-2.492004,153.742004L-2.238998,153.320999L-1.947006,152.925995L-1.830002,152.797302L-1.617004,152.562988L-1.253998,152.233002L-0.859009,151.94101L-0.438004,151.687988L0.005997,151.477997L0.160004,151.423004L0.468002,151.312988L0.944,151.194L1.429993,151.122009L1.919998,151.097992L2.410004,151.122009L2.895996,151.194L3.371994,151.312988L3.834,151.477997L4.255997,151.677582L4.278,151.687988L4.699005,151.94101L5.093994,152.233002L5.457001,152.562988L5.669998,152.797302L5.787003,152.925995L6.078995,153.320999L6.332001,153.742004L6.541992,154.186005L6.585571,154.307999L6.707001,154.647995L6.826004,155.123993L6.897995,155.610001L6.921997,156.100006L6.897995,156.589996L6.826004,157.075989L6.707001,157.552002L6.541992,158.014008L6.357544,158.403992L6.332001,158.458008L6.078995,158.878998L5.787003,159.274002L5.669998,159.402695z"/>
    <path transform="matrix(-1,0,0,1,-178.580032,93.899994)" style="stroke:#ff0000;stroke-width:0.05mm;fill:none" d="M-28.512009,175.060883L-28.660995,175.070007L-28.85701,175.063995L-29.051987,175.037994L-29.244003,174.992996L-29.430008,174.929993L-29.608017,174.847992L-29.712082,174.787994L-29.778,174.75L-29.938004,174.63501L-30.086014,174.505005L-30.220016,174.362L-30.339005,174.205994L-30.443008,174.039001L-30.529007,173.863007L-30.598007,173.679001L-30.649002,173.488998L-30.681015,173.294998L-30.694016,173.098999L-30.686996,172.903L-30.665268,172.73999L-30.660995,172.708008L-30.616013,172.515991L-30.560013,172.351563L-30.552994,172.330994L-30.472,172.152008L-30.373001,171.981995L-30.258987,171.821991L-30.129013,171.673996L-29.985001,171.540009L-29.828995,171.42099L-29.662003,171.317001L-29.535995,171.255432L-29.486008,171.230988L-29.301987,171.161987L-29.112015,171.110992L-28.918015,171.078995L-28.722,171.067001L-28.526016,171.072998L-28.512009,171.07486L-28.331009,171.098999L-28.139999,171.143997L-27.953995,171.207001L-27.775009,171.287994L-27.604996,171.386993L-27.444992,171.501999L-27.297989,171.630997L-27.164017,171.774994L-27.043991,171.931L-26.940994,172.097992L-26.853989,172.274002L-26.784988,172.458008L-26.733994,172.647995L-26.719315,172.73999L-26.702988,172.841995L-26.689987,173.037994L-26.697006,173.234009L-26.722,173.429001L-26.767014,173.619995L-26.831009,173.806L-26.912003,173.985001L-27.009995,174.154999L-27.125015,174.315002L-27.25499,174.462006L-27.397995,174.596008L-27.554001,174.716003L-27.670731,174.787994L-27.720993,174.819L-27.896988,174.906006L-28.081009,174.975006L-28.271011,175.026001L-28.465012,175.057999L-28.512009,175.060883z"/>
    <path transform="matrix(-1,0,0,1,-178.580032,93.899994)" style="stroke:#ff0000;stroke-width:0.05mm;fill:none" d="M-26.444016,139.061005L-26.464005,139.076752L-26.599014,139.182999L-26.763992,139.289001L-26.939011,139.378998L-27.121994,139.450989L-27.310989,139.503998L-27.50499,139.539001L-27.701004,139.554993L-27.896988,139.550995L-28.091995,139.528L-28.284012,139.485992L-28.470993,139.425995L-28.512009,139.408005L-28.651016,139.347L-28.823013,139.251007L-28.983994,139.139008L-29.133987,139.011993L-29.270004,138.869995L-29.392014,138.716003L-29.498001,138.549988L-29.587997,138.375L-29.659988,138.192001L-29.712997,138.002991L-29.727341,137.923996L-29.748001,137.809998L-29.763992,137.613998L-29.759995,137.416992L-29.737015,137.222L-29.694992,137.029999L-29.634995,136.842987L-29.556015,136.662994L-29.460007,136.492004L-29.348007,136.330002L-29.220016,136.181L-29.078995,136.044006L-28.925003,135.921997L-28.852951,135.876007L-28.758987,135.81601L-28.584,135.72699L-28.512009,135.698669L-28.401016,135.654999L-28.21199,135.600998L-28.018997,135.567001L-27.823013,135.550995L-27.625992,135.554993L-27.431015,135.578003L-27.238998,135.618988L-27.051987,135.679993L-26.871994,135.759003L-26.699997,135.854004L-26.539017,135.966995L-26.464005,136.030487L-26.388992,136.093994L-26.253006,136.235992L-26.130997,136.389999L-26.025009,136.554993L-25.935989,136.729996L-25.863998,136.912994L-25.810013,137.10199L-25.776016,137.29599L-25.759995,137.492004L-25.763992,137.687988L-25.785995,137.882996L-25.794968,137.923996L-25.827988,138.074997L-25.888992,138.261993L-25.966995,138.442993L-26.063004,138.613998L-26.175003,138.774994L-26.302994,138.924988L-26.444016,139.061005z"/>
    <path transform="matrix(-1,0,0,1,-178.580032,93.899994)" style="stroke:#ff0000;stroke-width:0.05mm;fill:none" d="M3.686005,192.044006L3.595154,192.195984L3.584991,192.213013L3.468002,192.369995L3.335999,192.515991L3.190002,192.64801L3.033005,192.764984L2.863998,192.865997L2.686005,192.950012L2.500992,193.015991L2.311005,193.063995L2.207993,193.079315L2.115997,193.092987L1.919998,193.102997L1.723999,193.092987L1.528992,193.063995L1.339005,193.015991L1.153992,192.950012L0.975998,192.865997L0.806992,192.764984L0.649994,192.64801L0.503998,192.515991L0.371994,192.369995L0.255005,192.213013L0.160004,192.054047L0.153992,192.044006L0.069992,191.865997L0.003998,191.681L-0.044006,191.490997L-0.072998,191.29599L-0.07933,191.171997L-0.083008,191.100006L-0.072998,190.903992L-0.044006,190.708984L0.003998,190.519012L0.069992,190.333984L0.153992,190.156006L0.160004,190.145966L0.255005,189.987L0.371994,189.829987L0.503998,189.68399L0.649994,189.552002L0.806992,189.434998L0.975998,189.333984L1.153992,189.25L1.339005,189.18399L1.528992,189.135986L1.723999,189.106995L1.919998,189.097992L2.115997,189.106995L2.207993,189.120667L2.230301,189.123993L2.311005,189.135986L2.500992,189.18399L2.686005,189.25L2.863998,189.333984L3.033005,189.434998L3.190002,189.552002L3.335999,189.68399L3.468002,189.829987L3.584991,189.987L3.681213,190.14801L3.686005,190.156006L3.770004,190.333984L3.835999,190.519012L3.884003,190.708984L3.912994,190.903992L3.921997,191.100006L3.918686,191.171997L3.912994,191.29599L3.884003,191.490997L3.835999,191.681L3.770004,191.865997L3.686005,192.044006z"/>
    <path transform="matrix(-1,0,0,1,-178.580032,93.899994)" style="stroke:#ff0000;stroke-width:0.05mm;fill:none" d="M2.115997,123.093002L1.919998,123.102997L1.723999,123.093002L1.528992,123.063995L1.339005,123.015999L1.153992,122.949997L0.975998,122.865997L0.806992,122.764999L0.649994,122.647995L0.503998,122.515999L0.371994,122.369995L0.255005,122.212997L0.160004,122.054039L0.153992,122.043999L0.069992,121.865997L0.003998,121.681L-0.031616,121.539993L-0.044006,121.490997L-0.072998,121.295998L-0.083008,121.099998L-0.072998,120.903999L-0.044006,120.709L0.003998,120.518997L0.069992,120.334L0.153992,120.155998L0.160004,120.145958L0.255005,119.987L0.371994,119.830002L0.503998,119.683998L0.649994,119.552002L0.806992,119.434998L0.975998,119.334L1.153992,119.25L1.339005,119.183998L1.528992,119.136002L1.723999,119.106995L1.919998,119.098L2.115997,119.106995L2.207993,119.120682L2.311005,119.136002L2.500992,119.183998L2.686005,119.25L2.863998,119.334L3.033005,119.434998L3.109482,119.491997L3.190002,119.552002L3.335999,119.683998L3.468002,119.830002L3.584991,119.987L3.686005,120.155998L3.770004,120.334L3.835999,120.518997L3.884003,120.709L3.912994,120.903999L3.921997,121.099998L3.912994,121.295998L3.884003,121.490997L3.871613,121.539993L3.835999,121.681L3.770004,121.865997L3.686005,122.043999L3.584991,122.212997L3.468002,122.369995L3.335999,122.515999L3.190002,122.647995L3.033005,122.764999L2.863998,122.865997L2.686005,122.949997L2.500992,123.015999L2.311005,123.063995L2.207993,123.079315L2.115997,123.093002z"/>
</svg>
