<?xml version="1.0" standalone="no"?>
<!DOCTYPE svg PUBLIC "-//W3C//DTD SVG 1.1//EN"
  "http://www.w3.org/Graphics/SVG/1.1/DTD/svg11.dtd">
<svg width="167.5mm" height="132.99999999999997mm" viewBox="-98 -96.99999999999997 167.5 132.99999999999997" xmlns="http://www.w3.org/2000/svg" version="1.1">
	<title>svgOutput</title>
	<desc>made with tinkercad</desc>
<path d="M 68.5 29.999999999999993 L 63.5 29.999999999999993 L 63.5 34.99999999999999 L -7 34.99999999999999 L -7 29.999999999999993 L -12 29.999999999999993 L -12 1.1102230246251565e-16 L -7 1.1102230246251565e-16 L -7 -4.999999999999999 L 63.5 -4.999999999999999 L 63.5 1.1102230246251565e-16 L 68.5 1.1102230246251565e-16 L 68.5 29.999999999999993 M 68.5 -14.999999999999996 L 63.5 -14.999999999999996 L 63.5 -9.999999999999998 L -7 -9.999999999999998 L -7 -14.999999999999996 L -12 -14.999999999999996 L -12 -44.99999999999999 L -7 -44.99999999999999 L -7 -49.999999999999986 L 63.5 -49.999999999999986 L 63.5 -44.99999999999999 L 68.5 -44.99999999999999 L 68.5 -14.999999999999996 M 63.5 -55.999999999999986 L -7 -55.999999999999986 L -7 -60.999999999999986 L -12 -60.999999999999986 L -12 -90.99999999999999 L -7 -90.99999999999999 L -7 -95.99999999999997 L 63.5 -95.99999999999997 L 63.5 -90.99999999999999 L 68.5 -90.99999999999999 L 68.5 -60.999999999999986 L 63.5 -60.999999999999986 L 63.5 -55.999999999999986 M -16.5 27.999999999999993 L -21.5 27.999999999999993 L -21.5 32.99999999999999 L -92 32.99999999999999 L -92 27.999999999999993 L -97 27.999999999999993 L -97 -1.9999999999999996 L -92 -1.9999999999999996 L -92 -6.999999999999998 L -21.5 -6.999999999999998 L -21.5 -1.9999999999999996 L -16.5 -1.9999999999999996 L -16.5 27.999999999999993 M -16.5 -15.999999999999996 L -21.5 -15.999999999999996 L -21.5 -10.999999999999998 L -92 -10.999999999999998 L -92 -15.999999999999996 L -97 -15.999999999999996 L -97 -45.99999999999999 L -92 -45.99999999999999 L -92 -50.999999999999986 L -21.5 -50.999999999999986 L -21.5 -45.99999999999999 L -16.5 -45.99999999999999 L -16.5 -15.999999999999996 M -21.5 -55.999999999999986 L -92 -55.999999999999986 L -92 -60.999999999999986 L -97 -60.999999999999986 L -97 -90.99999999999999 L -92 -90.99999999999999 L -92 -95.99999999999997 L -21.5 -95.99999999999997 L -21.5 -90.99999999999999 L -16.5 -90.99999999999999 L -16.5 -60.999999999999986 L -21.5 -60.999999999999986 L -21.5 -55.999999999999986 z" fill="none" stroke="rgb(255,0,0)" stroke-width="0.001mm" />
</svg>