<?xml version="1.0" standalone="no"?>
<!DOCTYPE svg PUBLIC "-//W3C//DTD SVG 1.1//EN"
  "http://www.w3.org/Graphics/SVG/1.1/DTD/svg11.dtd">
<svg width="102mm" height="117.4700012207031mm" viewBox="-40 -39.99999999999999 102 117.4700012207031" xmlns="http://www.w3.org/2000/svg" version="1.1">
	<title>svgOutput</title>
	<desc>made with tinkercad</desc>
<path d="M 48.42100143432617 55.35400009155272 L 48.2512321472168 54.96337509155272 L 11 76.47000122070311 L 6.0359416007995605 73.60404968261717 L -34.0359992980957 50.46891403198241 L -39 47.60300064086913 L -39 -10.13199996948242 L -34.0359992980957 -12.998015403747555 L 6.0350661277771 -36.13344573974609 L 11 -38.99999999999999 L 56.0359992980957 -12.998015403747555 L 61 -10.13199996948242 L 61 41.869983673095696 L 61 47.60300064086913 L 48.89870834350586 54.589557647705064 L 48.42100143432617 55.35400009155272 M 16.279296875 61.67897796630858 L 19.237586975097656 65.98194122314452 L 46.259517669677734 50.380554199218736 L 44.17121124267578 45.57547760009765 L 37.349998474121094 49.51372909545897 L 23.971250534057617 57.23799896240233 L 16.279296875 61.67897796630858 M 50.83000183105469 37.10232543945312 L 56.0359992980957 36.87420272827148 L 56.0359992980957 3.423128366470336 L 50.83000183105469 2.92103362083435 L 50.83000183105469 4.938000202178954 L 50.83000183105469 23.738000869750973 L 50.83000183105469 37.10232543945312 M 46.1072998046875 -6.987668037414549 L 48.43354034423828 -11.655189514160154 L 19.49802589416504 -28.360765457153313 L 16.540136337280273 -24.05838203430175 L 38.816001892089844 -11.197327613830565 L 44.770999908447266 -7.759186267852781 L 46.1072998046875 -6.987668037414549 M 5.459863185882568 -24.05838203430175 L 2.501973867416382 -28.360765457153313 L -24.443580627441406 -12.804069519042965 L -22.355348587036133 -7.999164581298826 L -22.336000442504883 -8.010334968566893 L -16.350000381469727 -11.46637439727783 L 5.459863185882568 -24.05838203430175 M -23.902177810668945 44.57609558105468 L -26.228485107421875 49.24375152587889 L 2.762413263320923 65.98194122314452 L 5.720702648162842 61.67897796630858 L -22.336000442504883 45.480335235595696 L -23.770999908447266 44.6518325805664 L -23.902177810668945 44.57609558105468 M 9.454000473022461 23.493000030517575 L 11 23.738000869750973 L 12.545999526977539 23.493000030517575 L 13.9399995803833 22.78199958801269 L 15.04699993133545 21.674999237060543 L 15.758000373840332 20.281000137329098 L 16.003000259399414 18.73500061035156 L 15.758000373840332 17.188999176025387 L 15.34741497039795 16.38400077819824 L 15.04699993133545 15.795000076293942 L 13.9399995803833 14.687999725341793 L 12.545999526977539 13.977000236511227 L 11 13.732999801635739 L 9.454000473022461 13.977000236511227 L 8.0600004196167 14.687999725341793 L 6.953000068664551 15.795000076293942 L 6.652584552764893 16.38400077819824 L 6.242000102996826 17.188999176025387 L 5.998000144958496 18.73500061035156 L 6.242000102996826 20.281000137329098 L 6.953000068664551 21.674999237060543 L 8.0600004196167 22.78199958801269 L 9.454000473022461 23.493000030517575 M 8.145000457763672 -17.69400024414062 L 7.998000144958496 -16.767000198364254 L 8.145000457763672 -15.840000152587887 L 8.192000389099121 -15.747981071472164 L 8.571999549865723 -15.003999710083004 L 9.236000061035156 -14.340000152587887 L 10.072999954223633 -13.913999557495114 L 11 -13.767000198364254 L 11.928000450134277 -13.913999557495114 L 12.765000343322754 -14.340000152587887 L 13.428999900817871 -15.003999710083004 L 13.855999946594238 -15.840000152587887 L 13.942265510559082 -16.38400077819824 L 14.003000259399414 -16.767000198364254 L 13.855999946594238 -17.69400024414062 L 13.428999900817871 -18.531000137329098 L 12.765000343322754 -19.194999694824215 L 11.928000450134277 -19.62100028991699 L 11 -19.767999649047848 L 10.072999954223633 -19.62100028991699 L 9.236000061035156 -19.194999694824215 L 8.571999549865723 -18.531000137329098 L 8.192000389099121 -17.78612899780273 L 8.145000457763672 -17.69400024414062 M 38.8489990234375 2.532000064849853 L 39.16999816894531 3.4140000343322745 L 39.74700164794922 4.153999805450439 L 40.5260009765625 4.67899990081787 L 40.959999084472656 4.803618431091308 L 41.428001403808594 4.938000202178954 L 42.36600112915039 4.905000209808349 L 43.24800109863281 4.58400011062622 L 43.987998962402344 4.006000041961669 L 44.51300048828125 3.2279999256134024 L 44.770999908447266 2.3250000476837154 L 44.73899841308594 1.3869999647140503 L 44.417999267578125 0.5049999952316284 L 44.023555755615234 1.1102230246251565e-16 L 43.84000015258789 -0.23499999940395339 L 43.0620002746582 -0.7599999904632565 L 42.159000396728516 -1.0180000066757198 L 41.22100067138672 -0.9860000014305111 L 40.3390007019043 -0.6650000214576719 L 39.5989990234375 -0.0869999974966048 L 39.54047775268555 1.1102230246251565e-16 L 39.07500076293945 0.6919999718666077 L 38.816001892089844 1.5939999818801875 L 38.8489990234375 2.532000064849853 M 40.483585357666016 40.95999908447265 L 40.551998138427734 40.96599960327148 L 40.57801818847656 40.95999908447265 L 40.959999084472656 40.8719139099121 L 41.46699905395508 40.75500106811523 L 42.270999908447266 40.27199935913085 L 42.887001037597656 39.56299972534179 L 43.25400161743164 38.69900131225585 L 43.33599853515625 37.76399993896484 L 43.125 36.84899902343749 L 42.64099884033203 36.044998168945305 L 41.93299865722656 35.42900085449218 L 41.069000244140625 35.062000274658196 L 40.959999084472656 35.05244064331054 L 40.13399887084961 34.97999954223632 L 39.21900177001953 35.19100189208984 L 38.41400146484375 35.67499923706054 L 37.79899978637695 36.38299942016601 L 37.43199920654297 37.24700164794921 L 37.349998474121094 38.182998657226555 L 37.56100082397461 39.097000122070305 L 38.04499816894531 39.90200042724609 L 38.75299835205078 40.51800155639648 L 39.617000579833984 40.8839988708496 L 40.483585357666016 40.95999908447265 M 7.998000144958496 56.42800140380858 L 8.192000389099121 56.622001647949205 L 8.234999656677246 56.66500091552733 L 9.071999549865723 57.09099960327147 L 10 57.23799896240233 L 10.927000045776367 57.09099960327147 L 11.763999938964844 56.66500091552733 L 12.428000450134277 56.00099945068358 L 12.854999542236328 55.164001464843736 L 13.001999855041504 54.236999511718736 L 12.854999542236328 53.310001373291 L 12.823332786560059 53.2480010986328 L 12.428000450134277 52.473999023437486 L 11.763999938964844 51.810001373291 L 10.927000045776367 51.383998870849595 L 10 51.236999511718736 L 9.071999549865723 51.383998870849595 L 8.234999656677246 51.810001373291 L 8.192000389099121 51.853000640869126 L 7.998000144958496 52.04700088500975 L 7.571000099182129 52.473999023437486 L 7.144000053405762 53.310001373291 L 6.998000144958496 54.236999511718736 L 7.144000053405762 55.164001464843736 L 7.571000099182129 56.00099945068358 L 7.998000144958496 56.42800140380858 M -16.412464141845703 1.1102230246251565e-16 L -16.350000381469727 -0.7129999995231626 L -16.56100082397461 -1.626999974250793 L -17.045000076293945 -2.4319999217987056 L -17.753000259399414 -3.0480000972747794 L -18.617000579833984 -3.4140000343322745 L -19.552000045776367 -3.496000051498412 L -20.466999053955078 -3.2850000858306876 L -21.270999908447266 -2.8020000457763667 L -21.886999130249023 -2.092999935150146 L -22.253999710083008 -1.2289999723434444 L -22.336000442504883 -0.29399999976158125 L -22.268203735351562 1.1102230246251565e-16 L -22.125 0.6209999918937683 L -21.641000747680664 1.4249999523162842 L -20.933000564575195 2.040999889373779 L -20.069000244140625 2.407999992370605 L -19.134000778198242 2.4900000095367427 L -18.2189998626709 2.279000043869018 L -17.413999557495117 1.7949999570846553 L -16.798999786376953 1.0870000123977661 L -16.43199920654297 0.22300000488758093 L -16.412464141845703 1.1102230246251565e-16 M -22.336000442504883 32.95473480224609 L -22.988000869750977 33.46400070190429 L -23.51300048828125 34.24200057983398 L -23.770999908447266 35.145000457763665 L -23.73900032043457 36.08300018310546 L -23.417999267578125 36.96500015258788 L -22.84000015258789 37.70500183105468 L -22.336000442504883 38.04510116577148 L -22.062000274658203 38.22999954223632 L -21.159000396728516 38.48799896240234 L -20.479999542236328 38.46483612060546 L -20.22100067138672 38.456001281738274 L -19.339000701904297 38.134998321533196 L -18.599000930786133 37.55699920654296 L -18.075000762939453 36.77799987792968 L -17.81599998474121 35.87599945068359 L -17.849000930786133 34.93799972534179 L -18.170000076293945 34.05599975585937 L -18.746999740600586 33.31600189208984 L -19.525999069213867 32.79100036621093 L -19.60610008239746 32.76800155639648 L -20.42799949645996 32.53200149536132 L -21.365999221801758 32.56499862670898 L -21.923776626586914 32.76800155639648 L -22.24799919128418 32.886001586914055 L -22.336000442504883 32.95473480224609 M -34.0359992980957 44.69400024414062 L -34.0359992980957 44.73600006103515 L -32.579444885253906 45.57695770263671 L -33.06887435913086 44.69400024414062 L -34.0359992980957 44.69400024414062 M -28.829999923706055 0.8976746797561644 L -34.0359992980957 1.1257961988449097 L -34.0359992980957 34.5768699645996 L -28.829999923706055 35.078968048095696 L -28.829999923706055 0.8976746797561644 M 54.344947814941406 -7.999999999999998 L 54.7646484375 -7.999999999999998 L 54.147422790527344 -8.356348037719725 L 54.344947814941406 -7.999999999999998 z" fill="none" stroke="rgb(255,0,0)" stroke-width="0.001mm" />
</svg>