<?xml version="1.0" standalone="no"?>
<!DOCTYPE svg PUBLIC "-//W3C//DTD SVG 1.1//EN"
  "http://www.w3.org/Graphics/SVG/1.1/DTD/svg11.dtd">
<svg width="357mm" height="356.99999999999994mm" viewBox="-185 -183.99999999999997 357 356.99999999999994" xmlns="http://www.w3.org/2000/svg" version="1.1">
	<title>svgOutput</title>
	<desc>made with tinkercad</desc>
<path d="M 10.89799976348877 171.1450042724609 L 0 171.6805725097656 L -6.5 171.99999999999997 L -15 171.58227539062497 L -23.898000717163086 171.1450042724609 L -41.12900161743164 168.58900451660153 L -58.0260009765625 164.35699462890622 L -72.98946380615234 159.00300598144528 L -74.4260025024414 158.4889984130859 L -77.57413482666016 156.99999999999997 L -78.79037475585938 156.42474365234372 L -83.51705169677734 154.1891174316406 L -90.1729965209961 151.0410003662109 L -93.13999938964844 149.26271057128903 L -93.16200256347656 149.24952697753903 L -105.11399841308594 142.08599853515622 L -119.1050033569336 131.70899963378903 L -131.07200622558594 120.86210632324216 L -132.01100158691406 120.01100158691403 L -135.24732971191406 116.44046783447263 L -143.70899963378906 107.10500335693357 L -146.5820770263672 103.23130798339841 L -154.08599853515625 93.11399841308592 L -156.45587158203125 89.15997314453124 L -156.56564331054688 88.97682952880858 L -163.04100036621094 78.17299652099608 L -163.98141479492188 76.18471527099608 L -165.10638427734375 73.80623626708983 L -167.3342742919922 69.09590911865233 L -169 65.57413482666014 L -170.48899841308594 62.425998687744126 L -171.0030059814453 60.98946380615233 L -176.35699462890625 46.02600097656249 L -180.58900451660156 29.128999710083 L -180.9759979248047 26.520080566406243 L -183.14500427246094 11.897999763488768 L -183.72970581054688 1.1102230246251565e-16 L -184 -5.499999999999999 L -183.14500427246094 -22.898000717163082 L -180.9759979248047 -37.52008056640624 L -180.58900451660156 -40.12900161743163 L -176.35699462890625 -57.026000976562486 L -174.9720001220703 -60.896823883056626 L -171.0030059814453 -71.98946380615233 L -170.48899841308594 -73.42600250244139 L -169 -76.57413482666014 L -163.98141479492188 -87.18471527099608 L -163.04100036621094 -89.17299652099608 L -156.45587158203125 -100.15997314453122 L -154.08599853515625 -104.11399841308591 L -143.70899963378906 -118.10500335693357 L -132.01100158691406 -131.01100158691403 L -131.07200622558594 -131.86210632324216 L -128.44046020507812 -134.24732971191403 L -124.56090545654297 -137.76376342773435 L -119.1050033569336 -142.70899963378903 L -115.23130798339844 -145.58207702636716 L -111.03490447998047 -148.69451904296872 L -105.11399841308594 -153.08599853515622 L -100.9768295288086 -155.56564331054685 L -96.48611450195312 -158.2571868896484 L -90.1729965209961 -162.0410003662109 L -85.80623626708984 -164.10638427734372 L -81.09590911865234 -166.33427429199216 L -77.57413482666016 -167.99999999999997 L -74.4260025024414 -169.4889984130859 L -72.98946380615234 -170.00300598144528 L -58.0260009765625 -175.35699462890622 L -41.12900161743164 -179.58900451660153 L -23.898000717163086 -182.1450042724609 L -15 -182.58227539062497 L -6.5 -182.99999999999997 L 5.577042733878601e-13 -182.6805725097656 L 10.89799976348877 -182.1450042724609 L 17.99799919128418 -181.09181213378903 L 25.003000259399414 -180.05270385742185 L 28.128999710083008 -179.58900451660153 L 34.99800109863281 -177.86860656738278 L 42.00299835205078 -176.11413574218747 L 45.0260009765625 -175.35699462890622 L 59.989463806152344 -170.00300598144528 L 61.42599868774414 -169.4889984130859 L 64.57413482666016 -167.99999999999997 L 72.15899658203125 -164.41252136230466 L 77.1729965209961 -162.0410003662109 L 78.16200256347656 -161.44824218749997 L 92.11399841308594 -153.08599853515622 L 94.08921813964844 -151.6210021972656 L 106.1050033569336 -142.70899963378903 L 118.9437026977539 -131.0720062255859 L 119.01100158691406 -131.01100158691403 L 122.24732971191406 -127.44046783447263 L 130.70899963378906 -118.10500335693357 L 133.5820770263672 -114.23130798339841 L 141.08599853515625 -104.11399841308591 L 142.94171142578125 -101.01782226562497 L 143.56564331054688 -99.97682952880857 L 150.04100036621094 -89.17299652099608 L 150.5524139404297 -88.09173583984374 L 152.10638427734375 -84.80623626708983 L 154.3342742919922 -80.09590911865233 L 156 -76.57413482666014 L 157.48899841308594 -73.42600250244139 L 158.0030059814453 -71.98946380615233 L 159.9720001220703 -66.48646545410155 L 163.35699462890625 -57.026000976562486 L 165.9759979248047 -46.56918334960937 L 167.58900451660156 -40.12900161743163 L 170.14500427246094 -22.898000717163082 L 171 -5.499999999999999 L 170.99871826171875 -5.4739999771118155 L 170.72970581054688 1.1102230246251565e-16 L 170.14500427246094 11.897999763488768 L 167.58900451660156 29.128999710083 L 163.35699462890625 46.02600097656249 L 158.0030059814453 60.98946380615233 L 157.48899841308594 62.425998687744126 L 156 65.57413482666014 L 155.42474365234375 66.79037475585936 L 150.5524139404297 77.09173583984374 L 150.04100036621094 78.17299652099608 L 147.56204223632812 82.30902862548827 L 142.94171142578125 90.01782226562499 L 141.08599853515625 93.11399841308592 L 138.2108154296875 96.99053192138669 L 135.09544372558594 101.19088745117185 L 130.70899963378906 107.10500335693357 L 127.46759796142578 110.68112945556638 L 123.96221923828125 114.5484924316406 L 119.01100158691406 120.01100158691403 L 115.44046783447266 123.24732971191403 L 111.56090545654297 126.76376342773435 L 106.1050033569336 131.70899963378903 L 102.23130798339844 134.58207702636716 L 98.03490447998047 137.69451904296872 L 92.11399841308594 142.08599853515622 L 89.5245590209961 143.63800048828122 L 89.51287841796875 143.6450042724609 L 87.9768295288086 144.56564331054685 L 83.48611450195312 147.2571868896484 L 77.1729965209961 151.0410003662109 L 72.80623626708984 153.10638427734372 L 68.09590911865234 155.33427429199216 L 64.57413482666016 156.99999999999997 L 61.42599868774414 158.4889984130859 L 59.989463806152344 159.00300598144528 L 45.0260009765625 164.35699462890622 L 28.128999710083008 168.58900451660153 L 10.89799976348877 171.1450042724609 M 77.74087524414062 142.19276428222653 L 77.74099731445312 142.19299316406247 L 77.8239974975586 142.3170013427734 L 77.90499877929688 142.43800354003903 L 77.90882873535156 142.44264221191403 L 78.09200286865234 142.66499328613278 L 78.09701538085938 142.66998291015622 L 78.11241149902344 142.68531799316403 L 78.3010025024414 142.87300109863278 L 78.30667877197266 142.8776702880859 L 78.34181213378906 142.90661621093747 L 78.3479995727539 142.91400146484372 L 78.35944366455078 142.92114257812497 L 78.52799987792969 143.05999755859372 L 78.5523910522461 143.0761566162109 L 78.77400207519531 143.2230072021484 L 78.80210876464844 143.2380218505859 L 79.03025817871094 143.36000061035153 L 79.03399658203125 143.36199951171872 L 79.12657165527344 143.40011596679685 L 79.14399719238281 143.4109954833984 L 79.16679382324219 143.41668701171872 L 79.30599975585938 143.47399902343747 L 79.35226440429688 143.48811340332028 L 79.58799743652344 143.55999755859372 L 79.65032196044922 143.5722961425781 L 79.87699890136719 143.61700439453122 L 79.93172454833984 143.6222229003906 L 80.0290298461914 143.63153076171872 L 80.05500030517578 143.63800048828122 L 80.07917785644531 143.63632202148435 L 80.09674835205078 143.63800048828122 L 80.16999816894531 143.6450042724609 L 80.46499633789062 143.6450042724609 L 80.53572082519531 143.63800048828122 L 80.75800323486328 143.6159973144531 L 80.83265686035156 143.60101318359372 L 80.96234130859375 143.57499694824216 L 80.99099731445312 143.57299804687497 L 81.00949096679688 143.56552124023435 L 81.0469970703125 143.55799865722653 L 81.12487030029297 143.5341644287109 L 81.3280029296875 143.47200012207028 L 81.40877532958984 143.43844604492185 L 81.59759521484375 143.36000061035153 L 81.5999984741211 143.3589935302734 L 81.67965698242188 143.31642150878903 L 81.84613800048828 143.2274017333984 L 81.86199951171875 143.22099304199216 L 81.86880493164062 143.21528625488278 L 81.87581634521484 143.20941162109372 L 81.91999816894531 143.1798400878906 L 82.1050033569336 143.05599975585935 L 82.18218231201172 142.9924163818359 L 82.33200073242188 142.8690032958984 L 82.39656829833984 142.80412292480466 L 82.54000091552734 142.66000366210935 L 82.56029510498047 142.6353607177734 L 82.58100128173828 142.61799621582028 L 82.60104370117188 142.58590698242185 L 82.60234069824219 142.58432006835935 L 82.72699737548828 142.43299865722653 L 82.78057861328125 142.35214233398435 L 82.88999938964844 142.1869964599609 L 82.93585968017578 142.1015472412109 L 83.02899932861328 141.92799377441403 L 83.06192779541016 141.84774780273435 L 83.0780029296875 141.8220062255859 L 83.08068084716797 141.81123352050778 L 83.0865249633789 141.78778076171872 L 83.14099884033203 141.65499877929685 L 83.16804504394531 141.56632995605466 L 83.21674346923828 141.40663146972653 L 83.22699737548828 141.37300109863278 L 83.23902893066406 141.3119964599609 L 83.28399658203125 141.08399963378903 L 83.29263305664062 140.99366760253903 L 83.2977523803711 140.94007873535153 L 83.30500030517578 140.9109954833984 L 83.3031234741211 140.88392639160153 L 83.30500030517578 140.8642425537109 L 83.31199645996094 140.7910003662109 L 83.31199645996094 140.4960021972656 L 83.30500030517578 140.4252777099609 L 83.28299713134766 140.20300292968747 L 83.2701644897461 140.13905334472653 L 83.24146270751953 139.99601745605466 L 83.23999786376953 139.9750061035156 L 83.2345199584961 139.96144104003903 L 83.2249984741211 139.91400146484372 L 83.20758056640625 139.8570861816406 L 83.13899993896484 139.63299560546872 L 83.11822509765625 139.5829925537109 L 83.03805541992188 139.39001464843747 L 83.0260009765625 139.3609924316406 L 83.00391387939453 139.3196868896484 L 82.9741439819336 139.26400756835935 L 82.9011459350586 139.1274719238281 L 82.88700103759766 139.10099792480466 L 82.88646697998047 139.1002044677734 L 82.7229995727539 138.85600280761716 L 82.69957733154297 138.82757568359372 L 82.53600311279297 138.62899780273435 L 82.52022552490234 138.61329650878903 L 82.3270034790039 138.4210052490234 L 82.32132720947266 138.41632080078122 L 82.32099914550781 138.4160003662109 L 82.3138427734375 138.41015624999997 L 82.28880310058594 138.38952636718747 L 82.28500366210938 138.3849945068359 L 82.2779769897461 138.38061523437497 L 82.0999984741211 138.2339935302734 L 82.08883666992188 138.22660827636716 L 81.91999816894531 138.1147308349609 L 81.85701751708984 138.07299804687497 L 81.8479995727539 138.0670013427734 L 81.58799743652344 137.92799377441403 L 81.31600189208984 137.81599426269528 L 81.03399658203125 137.73100280761716 L 80.9532241821289 137.71478271484372 L 80.74500274658203 137.6730041503906 L 80.4520034790039 137.6450042724609 L 80.15799713134766 137.6450042724609 L 79.87200164794922 137.67330932617185 L 79.86499786376953 137.67399597167966 L 79.57599639892578 137.73199462890622 L 79.29499816894531 137.81799316406247 L 79.02300262451172 137.93099975585935 L 78.76300048828125 138.07000732421872 L 78.51899719238281 138.2339935302734 L 78.29100036621094 138.4210052490234 L 78.08300018310547 138.62899780273435 L 77.9531478881836 138.78817749023435 L 77.89700317382812 138.85699462890622 L 77.8239974975586 138.9660491943359 L 77.73300170898438 139.10200500488278 L 77.64701843261719 139.26400756835935 L 77.59500122070312 139.36199951171872 L 77.48300170898438 139.63400268554685 L 77.39700317382812 139.9160003662109 L 77.33999633789062 140.20500183105466 L 77.31199645996094 140.49800109863278 L 77.31199645996094 140.79200744628903 L 77.31513214111328 140.82360839843747 L 77.34100341796875 141.08500671386716 L 77.39900207519531 141.37399291992185 L 77.48500061035156 141.65499877929685 L 77.5979995727539 141.92700195312497 L 77.73699951171875 142.1869964599609 L 77.74087524414062 142.19276428222653 M 83.77999877929688 129.6139984130859 L 70.10199737548828 137.8119964599609 L 55.68600082397461 144.63000488281247 L 40.67100143432617 150.00300598144528 L 29.996999740600586 152.67684936523435 L 25.20199966430664 153.87800598144528 L 9.428000450134277 156.2180023193359 L -6.097661980376812e-13 156.68087768554685 L 0 156.99999999999997 L 0 158.68331909179685 L 9.62399959564209 158.21000671386716 L 17.78383445739746 156.99999999999997 L 25.593000411987305 155.84199523925778 L 27.6665096282959 155.32257080078122 L 41.25299835205078 151.91900634765622 L 43.2683219909668 151.19795227050778 L 56.45199966430664 146.48100280761716 L 58.389766693115234 145.5644378662109 L 71.0459976196289 139.57800292968747 L 72.88644409179688 138.4749603271484 L 84.89299774169922 131.27900695800778 L 86.61331176757812 130.0030364990234 L 97.85900115966797 121.66200256347653 L 99.44353485107422 120.22595214843747 L 109.82099914550781 110.82099914550778 L 111.26050567626953 109.23264312744138 L 120.66200256347656 98.85900115966794 L 121.93525695800781 97.1423416137695 L 130.2790069580078 85.8929977416992 L 131.38162231445312 84.05326843261717 L 131.69761657714844 83.52602386474608 L 130.18971252441406 82.65543365478514 L 129.96510314941406 82.52574920654295 L 128.61399841308594 84.77999877929686 L 119.11399841308594 97.588996887207 L 108.40499877929688 109.40499877929685 L 96.58899688720703 120.11399841308591 L 89.99708557128906 125.00299835205075 L 83.77999877929688 129.6139984130859 M -89.81549835205078 146.60124206542966 L -89.79399871826172 146.60200500488278 L -89.77033996582031 146.59521484374997 L -89.61900329589844 146.57499694824216 L -89.33300018310547 146.50799560546872 L -89.05400085449219 146.4129943847656 L -88.91594696044922 146.35015869140622 L -88.89099884033203 146.3430023193359 L -88.87186431884766 146.33009338378903 L -88.78600311279297 146.2910003662109 L -88.53099822998047 146.14399719238278 L -88.29100036621094 145.97200012207028 L -88.27590942382812 145.95867919921872 L -88.12773895263672 145.82794189453122 L -88.11299896240234 145.81799316406247 L -88.10531616210938 145.80815124511716 L -88.06999969482422 145.77699279785153 L -87.86900329589844 145.5619964599609 L -87.7511978149414 145.40800476074216 L -87.69000244140625 145.32800292968747 L -87.53500366210938 145.07800292968747 L -87.40499877929688 144.8139953613281 L -87.3010025024414 144.5379943847656 L -87.2249984741211 144.25300598144528 L -87.21772766113281 144.20796203613278 L -87.21299743652344 144.19500732421872 L -87.21229553222656 144.17433166503903 L -87.18099975585938 143.9805755615234 L -87.1780014038086 143.96200561523435 L -87.15899658203125 143.66900634765622 L -87.16899871826172 143.37399291992185 L -87.17082214355469 143.36000061035153 L -87.18099975585938 143.28178405761716 L -87.18167114257812 143.2766418457031 L -87.18099975585938 143.25700378417966 L -87.18692779541016 143.23626708984372 L -87.2047119140625 143.09956359863278 L -87.20700073242188 143.08200073242185 L -87.27400207519531 142.79499816894528 L -87.36900329589844 142.51600646972653 L -87.43268585205078 142.37609863281247 L -87.43900299072266 142.35400390624997 L -87.45050048828125 142.33697509765622 L -87.49099731445312 142.24800109863278 L -87.63899993896484 141.99299621582028 L -87.81099700927734 141.75399780273435 L -87.9545669555664 141.59045410156247 L -87.96499633789062 141.57499694824216 L -87.97496032714844 141.56721496582028 L -88.00499725341797 141.53300476074216 L -88.06400299072266 141.47784423828122 L -88.22000122070312 141.33200073242185 L -88.4540023803711 141.15199279785153 L -88.70500183105469 140.99699401855466 L -88.96900177001953 140.86700439453122 L -89.24500274658203 140.76400756835935 L -89.52999877929688 140.68800354003903 L -89.5740737915039 140.68070983886716 L -89.58699798583984 140.67599487304685 L -89.60668182373047 140.67530822753903 L -89.80187225341797 140.64300537109372 L -89.81999969482422 140.6399993896484 L -89.92617797851562 140.63313293457028 L -90.11199951171875 140.6211242675781 L -90.11399841308594 140.6210021972656 L -90.40899658203125 140.63099670410153 L -90.49884796142578 140.64300537109372 L -90.50450134277344 140.64375305175778 L -90.5260009765625 140.64300537109372 L -90.54966735839844 140.64978027343747 L -90.70099639892578 140.66999816894528 L -90.98699951171875 140.73699951171872 L -91.26599884033203 140.83200073242185 L -91.40544891357422 140.8952484130859 L -91.42900085449219 140.90199279785153 L -91.44673919677734 140.9139709472656 L -91.53500366210938 140.95399475097653 L -91.78900146484375 141.10200500488278 L -92.02899932861328 141.27299499511716 L -92.16000366210938 141.38859558105466 L -92.1922607421875 141.41705322265622 L -92.20700073242188 141.42700195312497 L -92.21472930908203 141.4368743896484 L -92.25 141.4680023193359 L -92.2986831665039 141.52006530761716 L -92.45099639892578 141.68299865722653 L -92.62999725341797 141.91700744628903 L -92.78600311279297 142.16700744628903 L -92.91600036621094 142.43200683593747 L -93.01899719238281 142.7079925537109 L -93.09500122070312 142.99200439453122 L -93.10254669189453 143.0377502441406 L -93.10700225830078 143.05000305175778 L -93.10765838623047 143.06874084472653 L -93.13999938964844 143.26481628417966 L -93.14299774169922 143.28300476074216 L -93.14797973632812 143.36000061035153 L -93.1601791381836 143.5488586425781 L -93.16200256347656 143.57699584960935 L -93.1520004272461 143.8710021972656 L -93.13999938964844 143.9608459472656 L -93.13921356201172 143.9667053222656 L -93.13999938964844 143.9889984130859 L -93.13297271728516 144.01348876953122 L -93.11299896240234 144.1629943847656 L -93.0459976196289 144.44999694824216 L -92.95099639892578 144.72900390624997 L -92.88739776611328 144.86871337890622 L -92.88099670410156 144.89100646972653 L -92.86949920654297 144.90803527832028 L -92.8290023803711 144.99699401855466 L -92.68099975585938 145.25199890136716 L -92.56873321533203 145.40800476074216 L -92.50900268554688 145.4909973144531 L -92.36323547363281 145.65780639648435 L -92.3550033569336 145.66999816894528 L -92.34736633300781 145.67596435546872 L -92.31500244140625 145.7129974365234 L -92.0999984741211 145.91400146484372 L -91.86599731445312 146.0930023193359 L -91.61499786376953 146.24800109863278 L -91.35099792480469 146.37800598144528 L -91.07499694824219 146.48199462890622 L -90.79100036621094 146.55799865722653 L -90.7410659790039 146.5660705566406 L -90.73300170898438 146.5690002441406 L -90.72008514404297 146.56945800781247 L -90.5185775756836 146.60200500488278 L -90.5 146.60499572753903 L -90.38362884521484 146.61251831054685 L -90.20600128173828 146.62399291992185 L -90.11199951171875 146.62081909179685 L -89.91100311279297 146.6139984130859 L -89.82115173339844 146.60200500488278 L -89.81549835205078 146.60124206542966 M -53.67100143432617 150.00300598144528 L -60.00299835205078 147.73713684082028 L -68.68599700927734 144.63000488281247 L -83.10199737548828 137.8119964599609 L -90.00299835205078 133.67584228515622 L -96.77999877929688 129.6139984130859 L -109.58899688720703 120.11399841308591 L -121.40499877929688 109.40499877929685 L -131.07200622558594 98.73871612548825 L -132.11399841308594 97.588996887207 L -141.61399841308594 84.77999877929686 L -143.47926330566406 81.6679000854492 L -144.52841186523438 82.27362823486327 L -145.21176147460938 82.66815948486327 L -143.2790069580078 85.8929977416992 L -142.00303649902344 87.61331176757811 L -133.66200256347656 98.85900115966794 L -132.2259521484375 100.44353485107419 L -131.07200622558594 101.71681213378903 L -122.82099914550781 110.82099914550778 L -110.85900115966797 121.66200256347653 L -109.14234161376953 122.93525695800778 L -97.89299774169922 131.27900695800778 L -96.05326843261719 132.3816223144531 L -84.0459976196289 139.57800292968747 L -82.11188507080078 140.49284362792966 L -69.4520034790039 146.48100280761716 L -67.43278503417969 147.20344543457028 L -54.25299835205078 151.91900634765622 L -52.17168045043945 152.44039916992185 L -38.59299850463867 155.84199523925778 L -36.4768180847168 156.15580749511716 L -30.78383445739746 156.99999999999997 L -22.624000549316406 158.21000671386716 L -15 158.58496093749997 L -15 156.99999999999997 L -15 156.58268737792966 L -22.42799949645996 156.2180023193359 L -38.20199966430664 153.87800598144528 L -42.50299835205078 152.80059814453122 L -53.67100143432617 150.00300598144528 M -179.67747497558594 -0.055956792086362714 L -179.59939575195312 1.1102230246251565e-16 L -179.59800720214844 0.0010000000474975621 L -179.34300231933594 0.14800000190734872 L -179.07400512695312 0.268999993801117 L -178.86831665039062 0.3390368223190308 L -178.8520050048828 0.347000002861023 L -178.83993530273438 0.34869942069053655 L -178.7949981689453 0.3639999926090241 L -178.50799560546875 0.4300000071525574 L -178.21600341796875 0.46799999475479126 L -177.9219970703125 0.4779999852180481 L -177.6280059814453 0.4580000042915344 L -177.33700561523438 0.4099999964237213 L -177.052001953125 0.3330000042915345 L -177.0108642578125 0.3174430131912232 L -176.9969940185547 0.31499999761581426 L -176.9787139892578 0.30528551340103155 L -176.77699279785156 0.22900000214576727 L -176.51300048828125 0.09799999743700036 L -176.3549346923828 1.1102230246251565e-16 L -176.26300048828125 -0.0570000000298022 L -176.18736267089844 -0.11517685651779161 L -176.16700744628906 -0.12600000202655778 L -176.14889526367188 -0.14477777481079088 L -176.1280059814453 -0.1608461588621138 L -176.0290069580078 -0.23700000345706923 L -175.81399536132812 -0.43900001049041726 L -175.6199951171875 -0.6600000262260435 L -175.52963256835938 -0.7868212461471554 L -175.51499938964844 -0.8019999861717221 L -175.5067138671875 -0.8190056085586545 L -175.44900512695312 -0.8999999761581418 L -175.302001953125 -1.15499997138977 L -175.18099975585938 -1.4240000247955318 L -175.10986328125 -1.632938146591186 L -175.10299682617188 -1.6469999551773067 L -175.10154724121094 -1.65735912322998 L -175.08599853515625 -1.7029999494552608 L -175.0189971923828 -1.9900000095367427 L -175.01145935058594 -2.04800009727478 L -174.9810028076172 -2.282000064849853 L -174.9720001220703 -2.5769999027252193 L -174.99200439453125 -2.8710000514984126 L -175.0399932861328 -3.1610000133514395 L -175.11700439453125 -3.446000099182128 L -175.1322784423828 -3.486538887023925 L -175.13499450683594 -3.502000093460082 L -175.1456298828125 -3.521989345550536 L -175.2209930419922 -3.7219998836517325 L -175.3509979248047 -3.9860000610351554 L -175.41964721679688 -4.09600019454956 L -175.5070037841797 -4.236000061035155 L -175.5662841796875 -4.312748908996581 L -175.5760040283203 -4.330999851226806 L -175.5933074951172 -4.347713947296142 L -175.68699645996094 -4.4689998626708975 L -175.88800048828125 -4.684000015258788 L -176.11000061035156 -4.877999782562255 L -176.1280059814453 -4.890900135040282 L -176.23501586914062 -4.967597484588622 L -176.2519989013672 -4.9840002059936515 L -176.27052307128906 -4.993043422698974 L -176.35000610351562 -5.050000190734862 L -176.60499572753906 -5.19700002670288 L -176.87399291992188 -5.317999839782714 L -177.07481384277344 -5.385657310485839 L -177.0959930419922 -5.395999908447265 L -177.1122589111328 -5.398272037506103 L -177.1529998779297 -5.412000179290771 L -177.44000244140625 -5.4790000915527335 L -177.73199462890625 -5.517000198364257 L -178.0260009765625 -5.526000022888183 L -178.17599487304688 -5.516305923461913 L -178.32000732421875 -5.506999969482421 L -178.61099243164062 -5.458000183105468 L -178.89599609375 -5.381999969482421 L -178.94122314453125 -5.364896774291991 L -178.95199584960938 -5.362999916076659 L -178.96617126464844 -5.355465412139892 L -179.17100524902344 -5.277999877929687 L -179.43499755859375 -5.146999835968017 L -179.68499755859375 -4.991000175476073 L -179.761962890625 -4.932127952575683 L -179.781005859375 -4.921999931335448 L -179.79750061035156 -4.904937267303466 L -179.91900634765625 -4.811999797821044 L -180.13400268554688 -4.610000133514403 L -180.2239990234375 -4.5070104598999015 L -180.3280029296875 -4.388000011444091 L -180.4143524169922 -4.267312049865722 L -180.4340057373047 -4.247000217437743 L -180.4448699951172 -4.224663257598876 L -180.49899291992188 -4.149000167846679 L -180.52943420410156 -4.09600019454956 L -180.64599609375 -3.8929998874664298 L -180.76800537109375 -3.624999999999999 L -180.83892822265625 -3.4144930839538565 L -180.84500122070312 -3.4019999504089347 L -180.84634399414062 -3.3924753665924063 L -180.86199951171875 -3.3459999561309806 L -180.9290008544922 -3.059000015258788 L -180.9669952392578 -2.7660000324249263 L -180.9759979248047 -2.471999883651733 L -180.95599365234375 -2.1779999732971187 L -180.9080047607422 -1.8869999647140498 L -180.83200073242188 -1.6030000448226924 L -180.8149871826172 -1.558283686637878 L -180.81300354003906 -1.5470000505447383 L -180.8048858642578 -1.5317283868789668 L -180.7270050048828 -1.3270000219345088 L -180.5970001220703 -1.0629999637603755 L -180.4409942626953 -0.8130000233650204 L -180.38282775878906 -0.7373700737953184 L -180.3719940185547 -0.7170000076293943 L -180.3532257080078 -0.6988888978958128 L -180.26100158691406 -0.5789999961853025 L -180.2239990234375 -0.539606988430023 L -180.05999755859375 -0.365000009536743 L -179.83799743652344 -0.17100000381469713 L -179.7130889892578 -0.08147513121366488 L -179.6959991455078 -0.06499999761581408 L -179.67747497558594 -0.055956792086362714 M -156.6300048828125 -67.68599700927733 L -150.9629364013672 -79.66847229003905 L -151.19146728515625 -79.80042266845702 L -152.70094299316406 -80.67192077636717 L -158.4810028076172 -68.45200347900389 L -159.2034454345703 -66.43278503417967 L -163.91900634765625 -53.25299835205077 L -164.44039916992188 -51.17168045043944 L -167.8419952392578 -37.592998504638665 L -168.1558074951172 -35.47681808471679 L -169 -29.783834457397454 L -170.2100067138672 -21.624000549316403 L -171.0030059814453 -5.499999999999999 L -170.7324981689453 1.1102230246251565e-16 L -170.2100067138672 10.623999595642088 L -169 18.783834457397457 L -167.8419952392578 26.593000411987298 L -167.32257080078125 28.66650962829589 L -163.91900634765625 42.252998352050774 L -163.1979522705078 44.26832199096679 L -158.4810028076172 57.451999664306626 L -157.56443786621094 59.38976669311522 L -152.70094299316406 69.67192077636717 L -152.1060028076172 69.32843017578124 L -150.9629364013672 68.66847229003905 L -156.6300048828125 56.686000823974595 L -162.0030059814453 41.671001434326165 L -165.8780059814453 26.201999664306634 L -168.21800231933594 10.428000450134276 L -168.72996520996094 1.1102230246251565e-16 L -169 -5.499999999999999 L -168.21800231933594 -21.427999496459957 L -165.8780059814453 -37.20199966430663 L -162.0030059814453 -52.67100143432616 L -156.6300048828125 -67.68599700927733 M 149.0030059814453 -52.67100143432616 L 152.8780059814453 -37.20199966430663 L 155.21800231933594 -21.427999496459957 L 156 -5.499999999999999 L 155.82806396484375 -1.998000025749206 L 155.72996520996094 1.1102230246251565e-16 L 155.21800231933594 10.428000450134276 L 152.8780059814453 26.201999664306634 L 149.0030059814453 41.671001434326165 L 143.6300048828125 56.686000823974595 L 137.53395080566406 69.57550048828124 L 137.67730712890625 69.65827178955077 L 139.18406677246094 70.52820587158202 L 139.2719268798828 70.57892608642577 L 139.4928436279297 70.11188507080077 L 145.4810028076172 57.451999664306626 L 146.2034454345703 55.43278503417967 L 150.91900634765625 42.252998352050774 L 151.44039916992188 40.171680450439446 L 154.8419952392578 26.593000411987298 L 155.1558074951172 24.476819992065423 L 156 18.783834457397457 L 157.2100067138672 10.623999595642088 L 157.7324981689453 1.1102230246251565e-16 L 158.0030059814453 -5.499999999999999 L 157.2100067138672 -21.624000549316403 L 156 -29.783834457397454 L 154.8419952392578 -37.592998504638665 L 154.32257080078125 -39.66650772094726 L 150.91900634765625 -53.25299835205077 L 150.1979522705078 -55.26832199096678 L 145.4810028076172 -68.45200347900389 L 144.56443786621094 -70.38977050781249 L 139.2719268798828 -81.57892608642577 L 138.7635498046875 -81.28541564941405 L 137.53395080566406 -80.57550048828124 L 143.6300048828125 -67.68599700927733 L 144.0030059814453 -66.64363861083983 L 149.0030059814453 -52.67100143432616 M 96.58899688720703 -131.1139984130859 L 96.63533782958984 -131.0720062255859 L 103.33721923828125 -124.99800109863278 L 108.40499877929688 -120.40499877929685 L 119.11399841308594 -108.588996887207 L 128.61399841308594 -95.77999877929686 L 129.96510314941406 -93.52574920654295 L 131.0994415283203 -94.18066406249999 L 131.69761657714844 -94.52602386474608 L 130.2790069580078 -96.89299774169919 L 129.00303649902344 -98.6133117675781 L 120.66200256347656 -109.85900115966794 L 119.2259521484375 -111.44353485107419 L 109.82099914550781 -121.82099914550778 L 108.2326431274414 -123.2605056762695 L 99.61341094970703 -131.0720062255859 L 97.85900115966797 -132.66200256347653 L 84.89299774169922 -142.27900695800778 L 83.05326843261719 -143.3816223144531 L 71.0459976196289 -150.57800292968747 L 69.11188507080078 -151.49284362792966 L 56.45199966430664 -157.48100280761716 L 54.43278503417969 -158.20344543457028 L 41.25299835205078 -162.91900634765622 L 39.17168045043945 -163.44039916992185 L 25.593000411987305 -166.84199523925778 L 23.47681999206543 -167.15580749511716 L 17.78383445739746 -167.99999999999997 L 9.62399959564209 -169.21000671386716 L 0 -169.68331909179685 L 0 -167.99999999999997 L -6.097661980376812e-13 -167.68087768554685 L 9.428000450134277 -167.2180023193359 L 25.20199966430664 -164.87800598144528 L 28.503000259399414 -164.05110168457028 L 38.99800109863281 -161.42208862304685 L 40.67100143432617 -161.00300598144528 L 46.00299835205078 -159.09498596191403 L 55.68600082397461 -155.63000488281247 L 70.10199737548828 -148.8119964599609 L 83.77999877929688 -140.6139984130859 L 96.58899688720703 -131.1139984130859 M -97.8827896118164 -150.09625244140622 L -97.78594207763672 -149.95216369628903 L -97.7239990234375 -149.86000061035153 L -97.53700256347656 -149.63200378417966 L -97.3290023803711 -149.42399597167966 L -97.29733276367188 -149.39816284179685 L -97.29299926757812 -149.39300537109372 L -97.28447723388672 -149.3876800537109 L -97.10099792480469 -149.23800659179685 L -96.85600280761719 -149.07499694824216 L -96.59600067138672 -148.93600463867185 L -96.49340057373047 -148.89375305175778 L -96.3239974975586 -148.8240051269531 L -96.25599670410156 -148.8034973144531 L -96.04199981689453 -148.7389984130859 L -95.75299835205078 -148.68099975585935 L -95.62742614746094 -148.66900634765622 L -95.45999908447266 -148.65299987792966 L -95.16600036621094 -148.65299987792966 L -95.00434112548828 -148.66900634765622 L -94.87300109863281 -148.68200683593747 L -94.59479522705078 -148.73783874511716 L -94.58399963378906 -148.74000549316403 L -94.3030014038086 -148.82600402832028 L -94.20800018310547 -148.8654632568359 L -94.03099822998047 -148.9389953613281 L -93.77100372314453 -149.07800292968747 L -93.72908782958984 -149.10617065429685 L -93.5270004272461 -149.24200439453122 L -93.29900360107422 -149.42900085449216 L -93.09100341796875 -149.6369934082031 L -93.02383422851562 -149.71932983398435 L -92.90499877929688 -149.86500549316403 L -92.74099731445312 -150.11000061035153 L -92.60299682617188 -150.36999511718747 L -92.5414047241211 -150.51957702636716 L -92.49099731445312 -150.6419982910156 L -92.40499877929688 -150.92399597167966 L -92.3479995727539 -151.2129974365234 L -92.33807373046875 -151.31686401367185 L -92.33599853515625 -151.33857727050778 L -92.31999969482422 -151.50599670410153 L -92.31999969482422 -151.55200195312497 L -92.31999969482422 -151.80000305175778 L -92.33599853515625 -151.9616546630859 L -92.3489990234375 -152.0930023193359 L -92.40313720703125 -152.36274719238278 L -92.40699768066406 -152.38200378417966 L -92.49299621582031 -152.6629943847656 L -92.60600280761719 -152.93499755859372 L -92.74272918701172 -153.19075012207028 L -92.74500274658203 -153.19500732421872 L -92.79179382324219 -153.26461791992185 L -92.90899658203125 -153.4389953613281 L -93.09600067138672 -153.66700744628903 L -93.30400085449219 -153.87499999999997 L -93.34384155273438 -153.9075012207031 L -93.35600280761719 -153.92199707031247 L -93.37992095947266 -153.93693542480466 L -93.53199768066406 -154.06100463867185 L -93.7770004272461 -154.22399902343747 L -94.03700256347656 -154.36300659179685 L -94.111328125 -154.39360046386716 L -94.1520004272461 -154.41900634765622 L -94.20518493652344 -154.43225097656247 L -94.20800018310547 -154.43341064453122 L -94.30899810791016 -154.4750061035156 L -94.59100341796875 -154.55999755859372 L -94.87899780273438 -154.61799621582028 L -94.99519348144531 -154.62910461425778 L -95.06300354003906 -154.64599609374997 L -95.12612915039062 -154.64161682128903 L -95.1719970703125 -154.64599609374997 L -95.46700286865234 -154.64599609374997 L -95.76000213623047 -154.61700439453122 L -95.9078369140625 -154.58732604980466 L -95.9990005493164 -154.58099365234372 L -96.05781555175781 -154.5572357177734 L -96.0672836303711 -154.55340576171872 L -96.25599670410156 -154.49565124511716 L -96.33000183105469 -154.4730072021484 L -96.60199737548828 -154.36000061035153 L -96.77590942382812 -154.26702880859372 L -96.87000274658203 -154.22900390624997 L -96.9103775024414 -154.19512939453122 L -96.95032501220703 -154.16163635253903 L -97.10600280761719 -154.05700683593747 L -97.33399963378906 -153.86999511718747 L -97.51538848876953 -153.6877288818359 L -97.58899688720703 -153.6260070800781 L -97.6094970703125 -153.5931701660156 L -97.64791107177734 -153.5316467285156 L -97.72799682617188 -153.43400573730466 L -97.89099884033203 -153.1889953613281 L -98.02999877929688 -152.92900085449216 L -98.041259765625 -152.90165710449216 L -98.06462097167969 -152.8642425537109 L -98.08599853515625 -152.83000183105466 L -98.08868408203125 -152.81922912597653 L -98.1093521118164 -152.73629760742185 L -98.14199829101562 -152.65699768066403 L -98.22699737548828 -152.37499999999997 L -98.28399658203125 -152.08599853515622 L -98.29231262207031 -152.00202941894528 L -98.30400085449219 -151.95512390136716 L -98.31300354003906 -151.91900634765622 L -98.31044006347656 -151.88212585449216 L -98.307861328125 -151.8449554443359 L -98.31300354003906 -151.7929992675781 L -98.31300354003906 -151.55200195312497 L -98.31300354003906 -151.49899291992185 L -98.30400085449219 -151.4080657958984 L -98.28399658203125 -151.20599365234372 L -98.25263214111328 -151.04969787597653 L -98.24800109863281 -150.98300170898435 L -98.23060607910156 -150.9399719238281 L -98.22599792480469 -150.91700744628903 L -98.13999938964844 -150.63600158691403 L -98.0270004272461 -150.3639984130859 L -97.90753173828125 -150.1405334472656 L -97.89995574951172 -150.12178039550778 L -97.89600372314453 -150.11199951171872 L -97.8827896118164 -150.09625244140622 M -22.42799949645996 -167.2180023193359 L -15 -167.58268737792966 L -15 -167.99999999999997 L -15 -169.58496093749997 L -22.624000549316406 -169.21000671386716 L -30.78383445739746 -167.99999999999997 L -38.59299850463867 -166.84199523925778 L -40.666507720947266 -166.32257080078122 L -54.25299835205078 -162.91900634765622 L -56.2683219909668 -162.19795227050778 L -69.4520034790039 -157.48100280761716 L -71.3897705078125 -156.5644378662109 L -84.0459976196289 -150.57800292968747 L -85.88644409179688 -149.4749603271484 L -97.89299774169922 -142.27900695800778 L -99.61331176757812 -141.0030364990234 L -110.85900115966797 -132.66200256347653 L -112.44353485107422 -131.22595214843747 L -122.82099914550781 -121.82099914550778 L -124.26050567626953 -120.23264312744138 L -131.07200622558594 -112.71681213378903 L -133.66200256347656 -109.85900115966794 L -143.2790069580078 -96.89299774169919 L -144.38162231445312 -95.05326843261717 L -145.21176147460938 -93.66815948486327 L -143.7893524169922 -92.84693145751952 L -143.47926330566406 -92.6679000854492 L -141.61399841308594 -95.77999877929686 L -132.11399841308594 -108.588996887207 L -131.07200622558594 -109.73871612548825 L -121.40499877929688 -120.40499877929685 L -109.58899688720703 -131.1139984130859 L -96.77999877929688 -140.6139984130859 L -83.10199737548828 -148.8119964599609 L -73.00199890136719 -153.58876037597653 L -68.68599700927734 -155.63000488281247 L -65.99700164794922 -156.59223937988278 L -53.67100143432617 -161.00300598144528 L -51.00199890136719 -161.67158508300778 L -43.99700164794922 -163.42634582519528 L -41.50299835205078 -164.05110168457028 L -38.20199966430664 -164.87800598144528 L -22.42799949645996 -167.2180023193359 M 32.41699981689453 124.83100128173825 L 33.5 125.00299835205075 L 34.582000732421875 124.83100128173825 L 35.55799865722656 124.33399963378903 L 36.33300018310547 123.55899810791013 L 36.67910385131836 122.87999725341794 L 36.83100128173828 122.58200073242185 L 37.00199890136719 121.49999999999997 L 36.83100128173828 120.4179992675781 L 36.33300018310547 119.44100189208982 L 35.55799865722656 118.66600036621091 L 34.582000732421875 118.16899871826169 L 33.5 117.99800109863278 L 32.41699981689453 118.16899871826169 L 31.44099998474121 118.66600036621091 L 30.666000366210938 119.44100189208982 L 30.167999267578125 120.4179992675781 L 29.996999740600586 121.49999999999997 L 30.167999267578125 122.58200073242185 L 30.319896697998047 122.87999725341794 L 30.666000366210938 123.55899810791013 L 31.44099998474121 124.33399963378903 L 32.41699981689453 124.83100128173825 M 54.41699981689453 69.83100128173827 L 55.5 70.00299835205077 L 56.582000732421875 69.83100128173827 L 57.55799865722656 69.33399963378905 L 58.33300018310547 68.55899810791014 L 58.83100128173828 67.58200073242186 L 59.00199890136719 66.49999999999999 L 58.849647521972656 65.53600311279295 L 58.83100128173828 65.41799926757811 L 58.33300018310547 64.44100189208983 L 57.55799865722656 63.66600036621092 L 56.582000732421875 63.168998718261705 L 55.5 62.9980010986328 L 54.41699981689453 63.168998718261705 L 53.441001892089844 63.66600036621092 L 52.66600036621094 64.44100189208983 L 52.167999267578125 65.41799926757811 L 52.14935302734375 65.53600311279295 L 51.99700164794922 66.49999999999999 L 52.167999267578125 67.58200073242186 L 52.66600036621094 68.55899810791014 L 53.441001892089844 69.33399963378905 L 54.41699981689453 69.83100128173827 M 9 131.8690032958984 L 10.330289840698242 131.0720062255859 L 11.946000099182129 130.10400390624997 L 14.704999923706055 128.05700683593747 L 17.250999450683594 125.75099945068357 L 19.55699920654297 123.20500183105466 L 21.604000091552734 120.44599914550778 L 23.368999481201172 117.49999999999997 L 24.83799934387207 114.39499664306638 L 25.9950008392334 111.16100311279294 L 26.829999923706055 107.82900238037107 L 27.333999633789062 104.43099975585935 L 27.503000259399414 100.99999999999997 L 27.370203018188477 98.30400085449216 L 27.333999633789062 97.5690002441406 L 26.829999923706055 94.17099761962889 L 25.9950008392334 90.83899688720702 L 24.83799934387207 87.60500335693358 L 23.368999481201172 84.49999999999999 L 21.604000091552734 81.55400085449217 L 19.55699920654297 78.7949981689453 L 17.250999450683594 76.24999999999999 L 14.704999923706055 73.94300079345702 L 11.946000099182129 71.89600372314452 L 9 70.13099670410155 L 5.894999980926514 68.66200256347655 L 2.6610000133514404 67.50499725341795 L 0 66.83815002441405 L -0.6710000038146973 66.6699981689453 L -4.068999767303467 66.16600036621092 L -7.5 65.9980010986328 L -10.930999755859375 66.16600036621092 L -14.329000473022461 66.6699981689453 L -15 66.83815002441405 L -17.660999298095703 67.50499725341795 L -20.895000457763672 68.66200256347655 L -24 70.13099670410155 L -26.945999145507812 71.89600372314452 L -29.704999923706055 73.94300079345702 L -32.250999450683594 76.24999999999999 L -32.768001556396484 76.82057952880858 L -34.55699920654297 78.7949981689453 L -36.604000091552734 81.55400085449217 L -38.36899948120117 84.49999999999999 L -39.8380012512207 87.60500335693358 L -40.994998931884766 90.83899688720702 L -41.83000183105469 94.17099761962889 L -42.33399963378906 97.5690002441406 L -42.37020492553711 98.30400085449216 L -42.50299835205078 100.99999999999997 L -42.33399963378906 104.43099975585935 L -41.83000183105469 107.82900238037107 L -40.994998931884766 111.16100311279294 L -39.8380012512207 114.39499664306638 L -38.36899948120117 117.49999999999997 L -36.604000091552734 120.44599914550778 L -34.55699920654297 123.20500183105466 L -32.928489685058594 125.00299835205075 L -32.250999450683594 125.75099945068357 L -29.704999923706055 128.05700683593747 L -26.945999145507812 130.10400390624997 L -25.330289840698242 131.0720062255859 L -24 131.8690032958984 L -20.895000457763672 133.3379974365234 L -17.660999298095703 134.49499511718747 L -15 135.1618499755859 L -14.329000473022461 135.33000183105466 L -10.930999755859375 135.83399963378903 L -7.5 136.00300598144528 L -4.068999767303467 135.83399963378903 L -0.6710000038146973 135.33000183105466 L 0 135.1618499755859 L 2.6610000133514404 134.49499511718747 L 5.894999980926514 133.3379974365234 L 9 131.8690032958984 M -57.58300018310547 124.83100128173825 L -56.5 125.00299835205075 L -55.417999267578125 124.83100128173825 L -54.44200134277344 124.33399963378903 L -53.66699981689453 123.55899810791013 L -53.32089614868164 122.87999725341794 L -53.16899871826172 122.58200073242185 L -52.99800109863281 121.49999999999997 L -53.16899871826172 120.4179992675781 L -53.66699981689453 119.44100189208982 L -54.44200134277344 118.66600036621091 L -55.417999267578125 118.16899871826169 L -56.5 117.99800109863278 L -57.58300018310547 118.16899871826169 L -58.558998107910156 118.66600036621091 L -59.33399963378906 119.44100189208982 L -59.832000732421875 120.4179992675781 L -60.00299835205078 121.49999999999997 L -59.832000732421875 122.58200073242185 L -59.68010330200195 122.87999725341794 L -59.33399963378906 123.55899810791013 L -58.558998107910156 124.33399963378903 L -57.58300018310547 124.83100128173825 M -87.58300018310547 69.83100128173827 L -86.5 70.00299835205077 L -85.41799926757812 69.83100128173827 L -84.44200134277344 69.33399963378905 L -83.66699981689453 68.55899810791014 L -83.16899871826172 67.58200073242186 L -82.99800109863281 66.49999999999999 L -83.15035247802734 65.53600311279295 L -83.16899871826172 65.41799926757811 L -83.66699981689453 64.44100189208983 L -84.44200134277344 63.66600036621092 L -85.41799926757812 63.168998718261705 L -86.5 62.9980010986328 L -87.58300018310547 63.168998718261705 L -88.55899810791016 63.66600036621092 L -89.33399963378906 64.44100189208983 L -89.83200073242188 65.41799926757811 L -89.85064697265625 65.53600311279295 L -90.00299835205078 66.49999999999999 L -89.83200073242188 67.58200073242186 L -89.33399963378906 68.55899810791014 L -88.55899810791016 69.33399963378905 L -87.58300018310547 69.83100128173827 M -33.33100128173828 -6.581999778747557 L -33.50299835205078 -5.499999999999999 L -33.33100128173828 -4.4180002212524405 L -32.83399963378906 -3.44099998474121 L -32.768001556396484 -3.374999999999999 L -32.058998107910156 -2.665999889373779 L -31.082000732421875 -2.168999910354614 L -30 -1.998000025749206 L -28.917999267578125 -2.168999910354614 L -27.94099998474121 -2.665999889373779 L -27.166000366210938 -3.44099998474121 L -26.66900062561035 -4.4180002212524405 L -26.49799919128418 -5.499999999999999 L -26.66900062561035 -6.581999778747557 L -27.166000366210938 -7.559000015258787 L -27.798999786376953 -8.19200038909912 L -27.94099998474121 -8.33399963378906 L -28.917999267578125 -8.831000328063963 L -30 -9.003000259399412 L -31.082000732421875 -8.831000328063963 L -32.058998107910156 -8.33399963378906 L -32.20100021362305 -8.19200038909912 L -32.768001556396484 -7.624999999999998 L -32.83399963378906 -7.559000015258787 L -33.33100128173828 -6.581999778747557 M 161.60499572753906 -5.802999973297118 L 161.79200744628906 -5.718884944915771 L 161.87399291992188 -5.682000160217284 L 162.1529998779297 -5.587999820709228 L 162.44000244140625 -5.520999908447265 L 162.73199462890625 -5.482999801635741 L 163.0260009765625 -5.4739999771118155 L 163.32000732421875 -5.493000030517577 L 163.61099243164062 -5.54199981689453 L 163.83999633789062 -5.603066444396972 L 163.89599609375 -5.618000030517577 L 164.17100524902344 -5.722000122070312 L 164.43499755859375 -5.8530001640319815 L 164.68499755859375 -6.008999824523924 L 164.91900634765625 -6.188000202178953 L 165.13400268554688 -6.389999866485594 L 165.3280029296875 -6.611999988555906 L 165.49899291992188 -6.8509998321533185 L 165.64599609375 -7.1069998741149885 L 165.76800537109375 -7.374999999999998 L 165.86199951171875 -7.653999805450438 L 165.9290008544922 -7.940999984741209 L 165.9615478515625 -8.19200038909912 L 165.9669952392578 -8.23400020599365 L 165.9759979248047 -8.527999877929686 L 165.95599365234375 -8.82199954986572 L 165.9080047607422 -9.112999916076658 L 165.83200073242188 -9.397000312805174 L 165.7270050048828 -9.673000335693358 L 165.5970001220703 -9.937000274658201 L 165.4409942626953 -10.187000274658201 L 165.40023803710938 -10.239999771118162 L 165.26100158691406 -10.420999526977537 L 165.05999755859375 -10.635000228881834 L 164.83799743652344 -10.82900047302246 L 164.59800720214844 -11.001000404357908 L 164.34300231933594 -11.147999763488768 L 164.07400512695312 -11.26900005340576 L 163.83999633789062 -11.34867763519287 L 163.7949981689453 -11.364000320434569 L 163.50799560546875 -11.43000030517578 L 163.21600341796875 -11.468000411987303 L 162.9219970703125 -11.477999687194822 L 162.6280059814453 -11.458000183105467 L 162.33700561523438 -11.409999847412108 L 162.052001953125 -11.333000183105467 L 161.79200744628906 -11.234672546386717 L 161.77699279785156 -11.229000091552733 L 161.51300048828125 -11.097999572753904 L 161.26300048828125 -10.942999839782713 L 161.0290069580078 -10.762999534606932 L 160.81399536132812 -10.560999870300291 L 160.6199951171875 -10.340000152587889 L 160.44900512695312 -10.100000381469725 L 160.302001953125 -9.845000267028807 L 160.18099975585938 -9.576000213623045 L 160.08599853515625 -9.296999931335447 L 160.0189971923828 -9.010000228881834 L 159.9810028076172 -8.718000411987303 L 159.9720001220703 -8.423000335693358 L 159.9877166748047 -8.19200038909912 L 159.99200439453125 -8.128999710083006 L 160.0399932861328 -7.839000225067137 L 160.11700439453125 -7.553999900817869 L 160.2209930419922 -7.277999877929686 L 160.3509979248047 -7.013999938964842 L 160.5070037841797 -6.763999938964842 L 160.68699645996094 -6.5310001373291 L 160.88800048828125 -6.315999984741209 L 161.11000061035156 -6.122000217437742 L 161.35000610351562 -5.949999809265136 L 161.60499572753906 -5.802999973297118 M 13.918000221252441 -2.168999910354614 L 15 -1.998000025749206 L 16.082000732421875 -2.168999910354614 L 16.384000778198242 -2.3226275444030757 L 17.05900001525879 -2.665999889373779 L 17.833999633789062 -3.44099998474121 L 18.33099937438965 -4.4180002212524405 L 18.503000259399414 -5.499999999999999 L 18.33099937438965 -6.581999778747557 L 17.833999633789062 -7.559000015258787 L 17.201000213623047 -8.19200038909912 L 17.05900001525879 -8.33399963378906 L 16.082000732421875 -8.831000328063963 L 15 -9.003000259399412 L 13.918000221252441 -8.831000328063963 L 12.940999984741211 -8.33399963378906 L 12.798999786376953 -8.19200038909912 L 12.166000366210938 -7.559000015258787 L 11.668999671936035 -6.581999778747557 L 11.498000144958496 -5.499999999999999 L 11.668999671936035 -4.4180002212524405 L 12.166000366210938 -3.44099998474121 L 12.940999984741211 -2.665999889373779 L 13.918000221252441 -2.168999910354614 M 39.417999267578125 -2.168999910354614 L 40.5 -1.998000025749206 L 40.959999084472656 -2.070698738098144 L 41.582000732421875 -2.168999910354614 L 42.558998107910156 -2.665999889373779 L 43.33399963378906 -3.44099998474121 L 43.83100128173828 -4.4180002212524405 L 44.00299835205078 -5.499999999999999 L 43.83100128173828 -6.581999778747557 L 43.33399963378906 -7.559000015258787 L 42.70100021362305 -8.19200038909912 L 42.558998107910156 -8.33399963378906 L 41.582000732421875 -8.831000328063963 L 40.5 -9.003000259399412 L 39.417999267578125 -8.831000328063963 L 38.441001892089844 -8.33399963378906 L 38.29899978637695 -8.19200038909912 L 37.66600036621094 -7.559000015258787 L 37.16899871826172 -6.581999778747557 L 36.99800109863281 -5.499999999999999 L 37.16899871826172 -4.4180002212524405 L 37.66600036621094 -3.44099998474121 L 38.441001892089844 -2.665999889373779 L 39.417999267578125 -2.168999910354614 M 90.11199951171875 -2.059319734573364 L 90.5 -1.998000025749206 L 91.58200073242188 -2.168999910354614 L 92.55899810791016 -2.665999889373779 L 93.33399963378906 -3.44099998474121 L 93.83100128173828 -4.4180002212524405 L 94.00299835205078 -5.499999999999999 L 93.83100128173828 -6.581999778747557 L 93.33399963378906 -7.559000015258787 L 92.70099639892578 -8.19200038909912 L 92.55899810791016 -8.33399963378906 L 91.58200073242188 -8.831000328063963 L 90.5 -9.003000259399412 L 89.41799926757812 -8.831000328063963 L 88.44100189208984 -8.33399963378906 L 88.29900360107422 -8.19200038909912 L 87.66600036621094 -7.559000015258787 L 87.16899871826172 -6.581999778747557 L 86.99800109863281 -5.499999999999999 L 87.16899871826172 -4.4180002212524405 L 87.66600036621094 -3.44099998474121 L 88.44100189208984 -2.665999889373779 L 89.41799926757812 -2.168999910354614 L 90.11199951171875 -2.059319734573364 M 137.16900634765625 -6.581999778747557 L 136.9980010986328 -5.499999999999999 L 137.16900634765625 -4.4180002212524405 L 137.66600036621094 -3.44099998474121 L 138.4409942626953 -2.665999889373779 L 139.26400756835938 -2.2473397254943843 L 139.41799926757812 -2.168999910354614 L 140.5 -1.998000025749206 L 141.58200073242188 -2.168999910354614 L 142.5590057373047 -2.665999889373779 L 143.33399963378906 -3.44099998474121 L 143.83099365234375 -4.4180002212524405 L 144.0030059814453 -5.499999999999999 L 143.83099365234375 -6.581999778747557 L 143.33399963378906 -7.559000015258787 L 142.7010040283203 -8.19200038909912 L 142.5590057373047 -8.33399963378906 L 141.58200073242188 -8.831000328063963 L 140.5 -9.003000259399412 L 139.41799926757812 -8.831000328063963 L 138.4409942626953 -8.33399963378906 L 138.2989959716797 -8.19200038909912 L 137.66600036621094 -7.559000015258787 L 137.16900634765625 -6.581999778747557 M 21.392812728881836 -170.00300598144528 L 21.46259117126465 -169.9997406005859 L 21.5 -169.99800109863278 L 21.607187271118164 -170.00300598144528 L 21.843000411987305 -170.01400756835935 L 22.183000564575195 -170.06500244140622 L 22.517000198364258 -170.14799499511716 L 22.527999877929688 -170.15194702148435 L 22.84000015258789 -170.26400756835935 L 23.150999069213867 -170.4109954833984 L 23.445999145507812 -170.5879974365234 L 23.722000122070312 -170.7929992675781 L 23.976999282836914 -171.02299499511716 L 24.207000732421875 -171.27799987792966 L 24.41200065612793 -171.55400085449216 L 24.576000213623047 -171.82733154296872 L 24.589000701904297 -171.84899902343747 L 24.675498962402344 -172.03199768066403 L 24.736000061035156 -172.16000366210935 L 24.851999282836914 -172.48300170898435 L 24.934999465942383 -172.8170013427734 L 24.986000061035156 -173.15699768066403 L 25.003000259399414 -173.49999999999997 L 24.986000061035156 -173.8430023193359 L 24.934999465942383 -174.18299865722653 L 24.851999282836914 -174.5169982910156 L 24.736000061035156 -174.8399963378906 L 24.589000701904297 -175.15100097656247 L 24.576000213623047 -175.17266845703122 L 24.41200065612793 -175.44599914550778 L 24.207000732421875 -175.72200012207028 L 23.976999282836914 -175.97700500488278 L 23.809587478637695 -176.12800598144528 L 23.722000122070312 -176.20700073242185 L 23.445999145507812 -176.41200256347653 L 23.150999069213867 -176.58900451660153 L 22.84000015258789 -176.7359924316406 L 22.517000198364258 -176.85200500488278 L 22.183000564575195 -176.93499755859372 L 21.843000411987305 -176.9859924316406 L 21.5 -177.00300598144528 L 21.156999588012695 -176.9859924316406 L 20.816999435424805 -176.93499755859372 L 20.482999801635742 -176.85200500488278 L 20.479999542236328 -176.85092163085935 L 20.15999984741211 -176.7359924316406 L 19.849000930786133 -176.58900451660153 L 19.554000854492188 -176.41200256347653 L 19.277999877929688 -176.20700073242185 L 19.190412521362305 -176.12800598144528 L 19.023000717163086 -175.97700500488278 L 18.792999267578125 -175.72200012207028 L 18.58799934387207 -175.44599914550778 L 18.410999298095703 -175.15100097656247 L 18.263999938964844 -174.8399963378906 L 18.148000717163086 -174.5169982910156 L 18.065000534057617 -174.18299865722653 L 18.013999938964844 -173.8430023193359 L 17.99799919128418 -173.49999999999997 L 18.013999938964844 -173.15699768066403 L 18.065000534057617 -172.8170013427734 L 18.148000717163086 -172.48300170898435 L 18.263999938964844 -172.16000366210935 L 18.324501037597656 -172.03199768066403 L 18.410999298095703 -171.84899902343747 L 18.58799934387207 -171.55400085449216 L 18.792999267578125 -171.27799987792966 L 19.023000717163086 -171.02299499511716 L 19.277999877929688 -170.7929992675781 L 19.554000854492188 -170.5879974365234 L 19.849000930786133 -170.4109954833984 L 20.15999984741211 -170.26400756835935 L 20.479999542236328 -170.1490783691406 L 20.482999801635742 -170.14799499511716 L 20.816999435424805 -170.06500244140622 L 21.156999588012695 -170.01400756835935 L 21.392812728881836 -170.00300598144528 M 35.33962631225586 -167.99999999999997 L 35.369876861572266 -167.93600463867185 L 35.4109992980957 -167.84899902343747 L 35.5880012512207 -167.55400085449216 L 35.792999267578125 -167.27799987792966 L 35.83270263671875 -167.23397827148435 L 36.02299880981445 -167.02299499511716 L 36.27799987792969 -166.7929992675781 L 36.55400085449219 -166.5879974365234 L 36.8489990234375 -166.4109954833984 L 36.86399841308594 -166.4039154052734 L 37.15999984741211 -166.26400756835935 L 37.483001708984375 -166.14799499511716 L 37.81700134277344 -166.06500244140622 L 38.15700149536133 -166.01400756835935 L 38.439823150634766 -166.00080871582028 L 38.5 -165.99800109863278 L 38.84299850463867 -166.01400756835935 L 39.18299865722656 -166.06500244140622 L 39.516998291015625 -166.14799499511716 L 39.84000015258789 -166.26400756835935 L 40.1510009765625 -166.4109954833984 L 40.444766998291016 -166.5872650146484 L 40.44599914550781 -166.5879974365234 L 40.72200012207031 -166.7929992675781 L 40.959999084472656 -167.00765991210935 L 40.97700119018555 -167.02299499511716 L 41.207000732421875 -167.27799987792966 L 41.4119987487793 -167.55400085449216 L 41.5890007019043 -167.84899902343747 L 41.630123138427734 -167.93600463867185 L 41.66037368774414 -167.99999999999997 L 41.73030090332031 -168.14794921874997 L 41.736000061035156 -168.16000366210935 L 41.85200119018555 -168.48300170898435 L 41.935001373291016 -168.8170013427734 L 41.986000061035156 -169.15699768066403 L 42.00299835205078 -169.49999999999997 L 41.986000061035156 -169.8430023193359 L 41.96200180053711 -170.00300598144528 L 41.935001373291016 -170.18299865722653 L 41.85200119018555 -170.5169982910156 L 41.736000061035156 -170.8399963378906 L 41.5890007019043 -171.15100097656247 L 41.4119987487793 -171.44599914550778 L 41.207000732421875 -171.72200012207028 L 40.97700119018555 -171.97700500488278 L 40.959999084472656 -171.9923400878906 L 40.91602325439453 -172.03199768066403 L 40.72200012207031 -172.20700073242185 L 40.44599914550781 -172.41200256347653 L 40.1510009765625 -172.58900451660153 L 39.84000015258789 -172.7359924316406 L 39.516998291015625 -172.85200500488278 L 39.18299865722656 -172.93499755859372 L 38.84299850463867 -172.9859924316406 L 38.5 -173.00300598144528 L 38.15700149536133 -172.9859924316406 L 37.81700134277344 -172.93499755859372 L 37.483001708984375 -172.85200500488278 L 37.15999984741211 -172.7359924316406 L 36.86399841308594 -172.59608459472653 L 36.8489990234375 -172.58900451660153 L 36.55400085449219 -172.41200256347653 L 36.27799987792969 -172.20700073242185 L 36.08397674560547 -172.03199768066403 L 36.02299880981445 -171.97700500488278 L 35.792999267578125 -171.72200012207028 L 35.5880012512207 -171.44599914550778 L 35.4109992980957 -171.15100097656247 L 35.263999938964844 -170.8399963378906 L 35.14799880981445 -170.5169982910156 L 35.064998626708984 -170.18299865722653 L 35.03799819946289 -170.00300598144528 L 35.013999938964844 -169.8430023193359 L 34.99800109863281 -169.49999999999997 L 35.013999938964844 -169.15699768066403 L 35.064998626708984 -168.8170013427734 L 35.14799880981445 -168.48300170898435 L 35.263999938964844 -168.16000366210935 L 35.33962631225586 -167.99999999999997 M 73.70500183105469 -151.99699401855466 L 73.72799682617188 -151.98567199707028 L 73.96900177001953 -151.86700439453122 L 74.24500274658203 -151.76400756835935 L 74.52999877929688 -151.68800354003903 L 74.81999969482422 -151.6399993896484 L 75.11399841308594 -151.6210021972656 L 75.40899658203125 -151.63099670410153 L 75.70099639892578 -151.66999816894528 L 75.7760009765625 -151.68757629394528 L 75.98699951171875 -151.73699951171872 L 76.26599884033203 -151.83200073242185 L 76.53500366210938 -151.95399475097653 L 76.55760192871094 -151.96716308593747 L 76.78900146484375 -152.10200500488278 L 77.02899932861328 -152.27299499511716 L 77.25 -152.4680023193359 L 77.45099639892578 -152.68299865722653 L 77.62999725341797 -152.91700744628903 L 77.78600311279297 -153.16700744628903 L 77.8239974975586 -153.24446105957028 L 77.91600036621094 -153.43200683593747 L 78.01899719238281 -153.7079925537109 L 78.09500122070312 -153.99200439453122 L 78.14299774169922 -154.28300476074216 L 78.16200256347656 -154.57699584960935 L 78.1520004272461 -154.8710021972656 L 78.11299896240234 -155.1629943847656 L 78.0459976196289 -155.44999694824216 L 77.97858428955078 -155.64799499511716 L 77.95099639892578 -155.72900390624997 L 77.8290023803711 -155.99699401855466 L 77.8239974975586 -156.00561523437497 L 77.68099975585938 -156.25199890136716 L 77.50900268554688 -156.4909973144531 L 77.31500244140625 -156.7129974365234 L 77.0999984741211 -156.91400146484372 L 76.86599731445312 -157.0930023193359 L 76.61499786376953 -157.24800109863278 L 76.35099792480469 -157.37800598144528 L 76.07499694824219 -157.48199462890622 L 75.79100036621094 -157.55799865722653 L 75.7760009765625 -157.56042480468747 L 75.5 -157.60499572753903 L 75.20600128173828 -157.62399291992185 L 74.91100311279297 -157.6139984130859 L 74.61900329589844 -157.57499694824216 L 74.33300018310547 -157.50799560546872 L 74.05400085449219 -157.4129943847656 L 73.78600311279297 -157.2910003662109 L 73.72799682617188 -157.25756835937497 L 73.53099822998047 -157.14399719238278 L 73.29100036621094 -156.97200012207028 L 73.06999969482422 -156.77699279785153 L 72.86900329589844 -156.5619964599609 L 72.69000244140625 -156.32800292968747 L 72.53500366210938 -156.07800292968747 L 72.40499877929688 -155.8139953613281 L 72.38157653808594 -155.75184631347653 L 72.34245300292969 -155.64799499511716 L 72.3010025024414 -155.5379943847656 L 72.2249984741211 -155.25300598144528 L 72.1780014038086 -154.96200561523435 L 72.15899658203125 -154.66900634765622 L 72.16899871826172 -154.37399291992185 L 72.20700073242188 -154.08200073242185 L 72.27400207519531 -153.79499816894528 L 72.34040069580078 -153.6000061035156 L 72.36900329589844 -153.51600646972653 L 72.49099731445312 -153.24800109863278 L 72.63899993896484 -152.99299621582028 L 72.81099700927734 -152.75399780273435 L 73.00499725341797 -152.53300476074216 L 73.22000122070312 -152.33200073242185 L 73.4540023803711 -152.15199279785153 L 73.70500183105469 -151.99699401855466 M 43.58300018310547 -131.83099365234372 L 42.5 -132.00300598144528 L 41.417999267578125 -131.83099365234372 L 40.44200134277344 -131.33399963378903 L 40.18000030517578 -131.0720062255859 L 39.66699981689453 -130.55900573730466 L 39.16899871826172 -129.58200073242185 L 38.99800109863281 -128.49999999999997 L 39.16899871826172 -127.4179992675781 L 39.66699981689453 -126.44100189208982 L 40.44200134277344 -125.66600036621091 L 40.959999084472656 -125.40222167968747 L 41.417999267578125 -125.16899871826169 L 42.5 -124.99800109863278 L 43.58300018310547 -125.16899871826169 L 44.558998107910156 -125.66600036621091 L 45.33399963378906 -126.44100189208982 L 45.832000732421875 -127.4179992675781 L 46.00299835205078 -128.49999999999997 L 45.832000732421875 -129.58200073242185 L 45.33399963378906 -130.55900573730466 L 44.82099914550781 -131.0720062255859 L 44.558998107910156 -131.33399963378903 L 43.58300018310547 -131.83099365234372 M 0.32899999618530273 -142.33000183105466 L 0 -142.37879943847653 L -3.069000005722046 -142.83399963378903 L -6.5 -143.00300598144528 L -9.930999755859375 -142.83399963378903 L -13.329000473022461 -142.33000183105466 L -15 -141.9112396240234 L -16.660999298095703 -141.49499511718747 L -19.895000457763672 -140.3379974365234 L -23 -138.8690032958984 L -25.945999145507812 -137.10400390624997 L -28.704999923706055 -135.05700683593747 L -31.250999450683594 -132.7510070800781 L -32.771728515625 -131.0720062255859 L -33.55699920654297 -130.20500183105466 L -35.604000091552734 -127.44599914550778 L -37.070640563964844 -124.99800109863278 L -37.36899948120117 -124.49999999999997 L -38.8380012512207 -121.39499664306638 L -39.994998931884766 -118.16100311279294 L -40.83000183105469 -114.82900238037107 L -41.33399963378906 -111.43099975585935 L -41.50299835205078 -107.99999999999997 L -41.33399963378906 -104.5690002441406 L -40.83000183105469 -101.17099761962888 L -40.11153030395508 -98.30400085449216 L -39.994998931884766 -97.838996887207 L -38.8380012512207 -94.60500335693358 L -37.36899948120117 -91.49999999999999 L -35.604000091552734 -88.55400085449217 L -33.55699920654297 -85.7949981689453 L -32.768001556396484 -84.92422485351561 L -31.250999450683594 -83.24999999999999 L -28.704999923706055 -80.94300079345702 L -25.945999145507812 -78.89600372314452 L -23 -77.13099670410155 L -19.895000457763672 -75.66200256347655 L -16.660999298095703 -74.50499725341795 L -15 -74.08875274658202 L -13.329000473022461 -73.6699981689453 L -9.930999755859375 -73.16600036621092 L -6.5 -72.9980010986328 L -3.069000005722046 -73.16600036621092 L 0 -73.62120056152342 L 0.32899999618530273 -73.6699981689453 L 3.6610000133514404 -74.50499725341795 L 6.894999980926514 -75.66200256347655 L 10 -77.13099670410155 L 12.946000099182129 -78.89600372314452 L 15.704999923706055 -80.94300079345702 L 18.250999450683594 -83.24999999999999 L 20.55699920654297 -85.7949981689453 L 22.604000091552734 -88.55400085449217 L 24.368999481201172 -91.49999999999999 L 25.83799934387207 -94.60500335693358 L 26.9950008392334 -97.838996887207 L 27.111528396606445 -98.30400085449216 L 27.829999923706055 -101.17099761962888 L 28.333999633789062 -104.5690002441406 L 28.503000259399414 -107.99999999999997 L 28.333999633789062 -111.43099975585935 L 27.829999923706055 -114.82900238037107 L 26.9950008392334 -118.16100311279294 L 25.83799934387207 -121.39499664306638 L 24.368999481201172 -124.49999999999997 L 22.604000091552734 -127.44599914550778 L 20.55699920654297 -130.20500183105466 L 19.771728515625 -131.0720062255859 L 18.250999450683594 -132.7510070800781 L 15.704999923706055 -135.05700683593747 L 12.946000099182129 -137.10400390624997 L 10 -138.8690032958984 L 6.894999980926514 -140.3379974365234 L 3.6610000133514404 -141.49499511718747 L 0.32899999618530273 -142.33000183105466 M 75.83200073242188 -72.41799926757811 L 76.00299835205078 -73.49999999999999 L 75.96696472167969 -73.72799682617186 L 75.83200073242188 -74.58200073242186 L 75.33399963378906 -75.55899810791014 L 74.55899810791016 -76.33399963378905 L 73.58300018310547 -76.83100128173827 L 72.5 -77.00299835205077 L 71.41799926757812 -76.83100128173827 L 70.44200134277344 -76.33399963378905 L 69.66699981689453 -75.55899810791014 L 69.16899871826172 -74.58200073242186 L 69.0340347290039 -73.72799682617186 L 68.99800109863281 -73.49999999999999 L 69.16899871826172 -72.41799926757811 L 69.66699981689453 -71.44100189208983 L 70.44200134277344 -70.66600036621092 L 71.41799926757812 -70.1689987182617 L 72.5 -69.9980010986328 L 73.58300018310547 -70.1689987182617 L 74.55899810791016 -70.66600036621092 L 75.33399963378906 -71.44100189208983 L 75.83200073242188 -72.41799926757811 M -50.83100128173828 -129.58200073242185 L -51.00199890136719 -128.49999999999997 L -50.83100128173828 -127.4179992675781 L -50.33300018310547 -126.44100189208982 L -49.55799865722656 -125.66600036621091 L -49.152000427246094 -125.4592590332031 L -48.582000732421875 -125.16899871826169 L -47.5 -124.99800109863278 L -46.41699981689453 -125.16899871826169 L -45.441001892089844 -125.66600036621091 L -44.66600036621094 -126.44100189208982 L -44.167999267578125 -127.4179992675781 L -43.99700164794922 -128.49999999999997 L -44.167999267578125 -129.58200073242185 L -44.66600036621094 -130.55900573730466 L -45.17900085449219 -131.0720062255859 L -45.441001892089844 -131.33399963378903 L -46.41699981689453 -131.83099365234372 L -47.5 -132.00300598144528 L -48.582000732421875 -131.83099365234372 L -49.55799865722656 -131.33399963378903 L -49.81999969482422 -131.0720062255859 L -50.33300018310547 -130.55900573730466 L -50.83100128173828 -129.58200073242185 M -66.16799926757812 -72.41799926757811 L -65.99700164794922 -73.49999999999999 L -66.03303527832031 -73.72799682617186 L -66.16799926757812 -74.58200073242186 L -66.66600036621094 -75.55899810791014 L -67.44100189208984 -76.33399963378905 L -68.41699981689453 -76.83100128173827 L -69.5 -77.00299835205077 L -70.58200073242188 -76.83100128173827 L -71.55799865722656 -76.33399963378905 L -72.33300018310547 -75.55899810791014 L -72.83100128173828 -74.58200073242186 L -72.9659652709961 -73.72799682617186 L -73.00199890136719 -73.49999999999999 L -72.83100128173828 -72.41799926757811 L -72.33300018310547 -71.44100189208983 L -71.55799865722656 -70.66600036621092 L -70.58200073242188 -70.1689987182617 L -69.5 -69.9980010986328 L -68.41699981689453 -70.1689987182617 L -67.44100189208984 -70.66600036621092 L -66.66600036621094 -71.44100189208983 L -66.16799926757812 -72.41799926757811 M -9.045999526977539 -0.7419999837875364 L -7.5 -0.49799999594688393 L -5.953999996185303 -0.7419999837875364 L -4.559999942779541 -1.4529999494552608 L -3.453000068664551 -2.5599999427795406 L -2.742000102996826 -3.953999996185302 L -2.497999906539917 -5.499999999999999 L -2.742000102996826 -7.0460000038146955 L -3.3265092372894287 -8.19200038909912 L -3.453000068664551 -8.439999580383299 L -4.559999942779541 -9.546999931335447 L -5.953999996185303 -10.25800037384033 L -7.5 -10.503000259399412 L -9.045999526977539 -10.25800037384033 L -10.4399995803833 -9.546999931335447 L -11.54699993133545 -8.439999580383299 L -11.673490524291992 -8.19200038909912 L -12.258000373840332 -7.0460000038146955 L -12.503000259399414 -5.499999999999999 L -12.258000373840332 -3.953999996185302 L -11.54699993133545 -2.5599999427795406 L -10.4399995803833 -1.4529999494552608 L -9.045999526977539 -0.7419999837875364 z" fill="none" stroke="rgb(255,0,0)" stroke-width="0.001mm" />
</svg>